<svg width="317" height="212" viewBox="0 0 317 212" fill="none" xmlns="http://www.w3.org/2000/svg">
<!-- <path d="M316.849 168.377C316.849 168.029 316.746 167.689 316.553 167.4C316.359 167.111 316.085 166.886 315.764 166.753C315.442 166.62 315.089 166.585 314.748 166.652C314.407 166.72 314.093 166.888 313.847 167.134L311.45 169.531L302.841 160.922C302.249 160.331 301.447 160 300.612 160C299.776 160 298.974 160.332 298.383 160.922L294.922 164.383C294.331 164.975 294 165.776 294 166.612C294 167.448 294.331 168.249 294.922 168.841L303.531 177.45L301.134 179.847C300.884 180.091 300.714 180.405 300.646 180.747C300.578 181.089 300.615 181.444 300.752 181.764C300.841 181.982 300.973 182.179 301.138 182.346C301.301 182.508 301.494 182.635 301.707 182.722C301.919 182.808 302.147 182.852 302.376 182.85L316.849 182.849L316.849 168.377Z" fill="url(#paint0_linear_2005_40)"/> -->
<path d="M206.119 175.567C244.124 137.562 244.124 75.943 206.119 37.9377C168.114 -0.0675552 106.495 -0.0675444 68.4895 37.9378C30.4842 75.943 30.4842 137.562 68.4895 175.567C106.495 213.572 168.114 213.572 206.119 175.567Z" stroke="#57D4E4" stroke-width="1.43652" stroke-linecap="round" stroke-linejoin="round" stroke-dasharray="1.25 6.24"/>
<path d="M103.838 141.911H99.9429V43.183C99.9429 37.7121 102.116 32.4654 105.985 28.5969C109.853 24.7285 115.1 22.5552 120.571 22.5552C126.041 22.5552 131.288 24.7285 135.157 28.5969C139.025 32.4654 141.198 37.7121 141.198 43.183V128.68H137.303V43.183C137.303 38.7452 135.54 34.4892 132.402 31.3513C129.264 28.2133 125.008 26.4504 120.571 26.4504C116.133 26.4504 111.877 28.2133 108.739 31.3513C105.601 34.4892 103.838 38.7452 103.838 43.183V141.911Z" fill="url(#paint1_linear_2005_40)"/>
<path d="M148.491 59.8813H128.561V47.8342C128.561 46.8007 128.972 45.8096 129.702 45.0789C130.433 44.3481 131.424 43.9376 132.457 43.9376H144.594C145.628 43.9376 146.619 44.3481 147.349 45.0788C148.08 45.8096 148.491 46.8007 148.491 47.8342V59.8813Z" fill="url(#paint2_linear_2005_40)"/>
<path d="M148.491 47.3878H128.561V51.1251H148.491V47.3878Z" fill="url(#paint3_linear_2005_40)"/>
<path d="M136.041 54.4866H141.01C145.93 54.4866 150.649 56.4412 154.128 59.9203C157.607 63.3995 159.562 68.1182 159.562 73.0385V135.615C159.562 140.536 157.607 145.254 154.128 148.733C150.649 152.213 145.93 154.167 141.01 154.167H136.041C131.121 154.167 126.402 152.212 122.923 148.733C119.444 145.254 117.489 140.535 117.489 135.615V73.0385C117.489 68.1182 119.444 63.3995 122.923 59.9203C126.402 56.4412 131.121 54.4866 136.041 54.4866Z" fill="url(#paint4_linear_2005_40)"/>
<mask id="mask0_2005_40" style="mask-type:luminance" maskUnits="userSpaceOnUse" x="117" y="54" width="43" height="101">
<path d="M136.041 54.4866H141.01C145.93 54.4866 150.649 56.4412 154.128 59.9203C157.607 63.3995 159.562 68.1182 159.562 73.0385V135.615C159.562 140.536 157.607 145.254 154.128 148.733C150.649 152.213 145.93 154.167 141.01 154.167H136.041C131.121 154.167 126.402 152.212 122.923 148.733C119.444 145.254 117.489 140.535 117.489 135.615V73.0385C117.489 68.1182 119.444 63.3995 122.923 59.9203C126.402 56.4412 131.121 54.4866 136.041 54.4866Z" fill="white"/>
</mask>
<g mask="url(#mask0_2005_40)">
<path style="mix-blend-mode:multiply" d="M140.148 155.1C167.955 155.1 190.497 144.729 190.497 131.936C190.497 119.143 167.955 108.773 140.148 108.773C112.342 108.773 89.7998 119.143 89.7998 131.936C89.7998 144.729 112.342 155.1 140.148 155.1Z" fill="url(#paint5_radial_2005_40)"/>
</g>
<path class="el1" d="M151.503 106.139C152.812 98.9718 148.062 92.1009 140.894 90.7926C133.727 89.4844 126.856 94.2342 125.548 101.402C124.239 108.569 128.989 115.44 136.157 116.748C143.324 118.057 150.195 113.307 151.503 106.139Z" fill="url(#paint6_linear_2005_40)"/>
<path d="M156.968 134.508H120.083C119.572 134.508 119.068 134.383 118.616 134.144C118.164 133.906 117.777 133.56 117.489 133.138V135.524C117.777 135.946 118.164 136.291 118.616 136.53C119.068 136.769 119.572 136.893 120.083 136.893H156.968C157.479 136.893 157.983 136.769 158.435 136.53C158.887 136.291 159.274 135.946 159.562 135.524V133.138C159.274 133.56 158.887 133.906 158.435 134.144C157.983 134.383 157.479 134.508 156.968 134.508Z" fill="url(#paint7_linear_2005_40)"/>
<path d="M156.968 140.782H120.083C119.328 140.779 118.599 140.503 118.033 140.004C118.274 141.017 118.601 142.009 119.01 142.967C119.353 143.096 119.716 143.164 120.083 143.167H156.968C157.334 143.164 157.698 143.096 158.041 142.967C158.45 142.009 158.777 141.017 159.018 140.004C158.451 140.503 157.723 140.779 156.968 140.782Z" fill="url(#paint8_linear_2005_40)"/>
<path d="M156.968 68.6312H120.083C119.403 68.6292 118.742 68.405 118.202 67.9928C118.019 68.6461 117.872 69.3089 117.762 69.9783C118.055 70.3044 118.412 70.5654 118.812 70.7443C119.212 70.9232 119.645 71.0161 120.083 71.0169H156.968C157.406 71.0161 157.839 70.9232 158.238 70.7443C158.638 70.5654 158.996 70.3044 159.288 69.9783C159.178 69.3089 159.032 68.646 158.849 67.9928C158.308 68.405 157.648 68.6292 156.968 68.6312Z" fill="url(#paint9_linear_2005_40)"/>
<path d="M156.968 74.9051H120.083C119.572 74.9052 119.068 74.7805 118.616 74.5417C118.164 74.303 117.777 73.9575 117.489 73.5352V75.921C117.777 76.3433 118.164 76.6888 118.616 76.9276C119.068 77.1663 119.572 77.291 120.083 77.2909H156.968C157.479 77.291 157.983 77.1663 158.435 76.9275C158.887 76.6888 159.274 76.3433 159.562 75.921V73.5352C159.274 73.9575 158.887 74.303 158.435 74.5417C157.983 74.7804 157.479 74.9052 156.968 74.9051Z" fill="url(#paint10_linear_2005_40)"/>
<path d="M188.781 175.729L169.485 134.981C168.859 133.669 167.875 132.56 166.647 131.782C165.419 131.005 163.996 130.59 162.542 130.586H140.489V175.729H136.562V130.586H114.509C113.055 130.59 111.632 131.005 110.403 131.782C109.175 132.56 108.191 133.669 107.566 134.981L88.2691 175.729H83.6689L103.808 133.201C104.773 131.179 106.289 129.47 108.182 128.272C110.075 127.074 112.268 126.435 114.509 126.429H162.542C164.782 126.435 166.975 127.074 168.868 128.272C170.761 129.47 172.278 131.179 173.242 133.201L193.381 175.729H188.781Z" fill="url(#paint11_linear_2005_40)"/>
<path class="el1" d="M139.271 96.8566H142.092V109.045H139.271V96.8566ZM133.734 109.045H130.913V96.8566H133.734V109.045ZM139.48 104.048H133.525V101.662H139.48V104.048Z" fill="white"/>
<path class="el1" d="M140.63 107.351V106.286L143.368 103.7C143.584 103.504 143.743 103.328 143.845 103.173C143.946 103.017 144.014 102.876 144.047 102.747C144.088 102.619 144.108 102.5 144.108 102.392C144.108 102.108 144.01 101.892 143.814 101.743C143.625 101.588 143.344 101.51 142.972 101.51C142.675 101.51 142.398 101.567 142.141 101.682C141.891 101.797 141.678 101.976 141.502 102.22L140.306 101.449C140.576 101.043 140.955 100.722 141.441 100.486C141.928 100.249 142.489 100.131 143.125 100.131C143.652 100.131 144.112 100.219 144.504 100.394C144.903 100.563 145.21 100.803 145.426 101.114C145.65 101.425 145.761 101.797 145.761 102.23C145.761 102.46 145.731 102.69 145.67 102.919C145.616 103.143 145.501 103.379 145.325 103.629C145.156 103.879 144.906 104.16 144.575 104.471L142.303 106.611L141.989 106.012H145.994V107.351H140.63Z" fill="white"/>
<path class="el1" d="M132.772 106.53H130.588V97.09H132.772V106.53ZM137.223 102.66H132.61V100.813H137.223V102.66ZM137.06 97.09H139.245V106.53H137.06V97.09Z" fill="url(#paint12_linear_2005_40)"/>
<path class="el1" d="M140.554 106.205V105.38L142.675 103.378C142.814 103.257 142.938 103.119 143.044 102.969C143.113 102.867 143.168 102.757 143.205 102.64C143.232 102.55 143.246 102.458 143.248 102.364C143.253 102.268 143.236 102.172 143.197 102.084C143.159 101.996 143.099 101.918 143.025 101.857C142.832 101.727 142.601 101.665 142.369 101.681C142.148 101.679 141.93 101.724 141.729 101.815C141.529 101.907 141.357 102.05 141.23 102.231L140.304 101.633C140.524 101.31 140.828 101.053 141.183 100.888C141.591 100.698 142.037 100.603 142.487 100.613C142.854 100.605 143.219 100.673 143.559 100.813C143.844 100.931 144.092 101.125 144.273 101.375C144.448 101.629 144.537 101.931 144.529 102.239C144.528 102.418 144.506 102.595 144.462 102.768C144.406 102.968 144.316 103.155 144.195 103.323C144.023 103.56 143.826 103.778 143.609 103.974L141.85 105.631L141.607 105.168H144.71V106.205L140.554 106.205Z" fill="url(#paint13_linear_2005_40)"/>
<defs>
<linearGradient id="paint0_linear_2005_40" x1="298.839" y1="165.107" x2="315.513" y2="181.331" gradientUnits="userSpaceOnUse">
<stop stop-color="#5A9AE0"/>
<stop offset="1" stop-color="#202D8F"/>
</linearGradient>
<linearGradient id="paint1_linear_2005_40" x1="108.741" y1="82.233" x2="156.468" y2="82.233" gradientUnits="userSpaceOnUse">
<stop stop-color="#202D8F"/>
<stop offset="1" stop-color="#528DCD"/>
</linearGradient>
<linearGradient id="paint2_linear_2005_40" x1="128.413" y1="51.9094" x2="149.143" y2="51.9094" gradientUnits="userSpaceOnUse">
<stop stop-color="#87D2E2"/>
<stop offset="0.49333" stop-color="#D6F8FF"/>
<stop offset="0.66171" stop-color="#BFEDF7"/>
<stop offset="1" stop-color="#87D2E2"/>
</linearGradient>
<linearGradient id="paint3_linear_2005_40" x1="159.218" y1="71.1375" x2="135.67" y2="46.236" gradientUnits="userSpaceOnUse">
<stop stop-color="#171E5C"/>
<stop offset="0.55097" stop-color="#4076C0"/>
<stop offset="1" stop-color="#171E5C"/>
</linearGradient>
<linearGradient id="paint4_linear_2005_40" x1="115.609" y1="104.327" x2="170.238" y2="104.327" gradientUnits="userSpaceOnUse">
<stop stop-color="#375BBB"/>
<stop offset="0.02596" stop-color="#406BC7"/>
<stop offset="0.08021" stop-color="#4E86DC"/>
<stop offset="0.13523" stop-color="#5999EA"/>
<stop offset="0.19096" stop-color="#5FA5F3"/>
<stop offset="0.24848" stop-color="#61A9F6"/>
<stop offset="0.30183" stop-color="#5491E6"/>
<stop offset="0.37548" stop-color="#4677D5"/>
<stop offset="0.44165" stop-color="#3E68CB"/>
<stop offset="0.49346" stop-color="#3B62C7"/>
<stop offset="0.68721" stop-color="#518AE2"/>
<stop offset="0.85469" stop-color="#61A9F6"/>
<stop offset="0.89405" stop-color="#5A9BEE"/>
<stop offset="0.96755" stop-color="#4778D9"/>
<stop offset="1" stop-color="#3D66CF"/>
</linearGradient>
<radialGradient id="paint5_radial_2005_40" cx="0" cy="0" r="1" gradientUnits="userSpaceOnUse" gradientTransform="translate(140.148 131.936) rotate(90) scale(23.1628 50.3498)">
<stop offset="0.28377" stop-color="#3297C9"/>
<stop offset="0.3127" stop-color="#43A0CD"/>
<stop offset="0.40595" stop-color="#74B9DA"/>
<stop offset="0.50149" stop-color="#9FCEE6"/>
<stop offset="0.59771" stop-color="#C2E0EF"/>
<stop offset="0.69485" stop-color="#DDEEF6"/>
<stop offset="0.79336" stop-color="#F0F7FB"/>
<stop offset="0.89399" stop-color="#FBFDFE"/>
<stop offset="1" stop-color="white"/>
</radialGradient>
<linearGradient id="paint6_linear_2005_40" x1="104.6" y1="55.4704" x2="142.159" y2="108.944" gradientUnits="userSpaceOnUse">
<stop stop-color="white"/>
<stop offset="0.22957" stop-color="#E8F6F9"/>
<stop offset="0.70796" stop-color="#AEE1EB"/>
<stop offset="1" stop-color="#87D2E2"/>
</linearGradient>
<linearGradient id="paint7_linear_2005_40" x1="101.941" y1="82.2447" x2="141.946" y2="139.2" gradientUnits="userSpaceOnUse">
<stop stop-color="white"/>
<stop offset="0.22957" stop-color="#E8F6F9"/>
<stop offset="0.70796" stop-color="#AEE1EB"/>
<stop offset="1" stop-color="#87D2E2"/>
</linearGradient>
<linearGradient id="paint8_linear_2005_40" x1="101.854" y1="88.5793" x2="141.859" y2="145.535" gradientUnits="userSpaceOnUse">
<stop stop-color="white"/>
<stop offset="0.22957" stop-color="#E8F6F9"/>
<stop offset="0.70796" stop-color="#AEE1EB"/>
<stop offset="1" stop-color="#87D2E2"/>
</linearGradient>
<linearGradient id="paint9_linear_2005_40" x1="101.544" y1="16.6471" x2="141.548" y2="73.6026" gradientUnits="userSpaceOnUse">
<stop stop-color="white"/>
<stop offset="0.22957" stop-color="#E8F6F9"/>
<stop offset="0.70796" stop-color="#AEE1EB"/>
<stop offset="1" stop-color="#87D2E2"/>
</linearGradient>
<linearGradient id="paint10_linear_2005_40" x1="101.941" y1="22.6423" x2="141.946" y2="79.5979" gradientUnits="userSpaceOnUse">
<stop stop-color="white"/>
<stop offset="0.22957" stop-color="#E8F6F9"/>
<stop offset="0.70796" stop-color="#AEE1EB"/>
<stop offset="1" stop-color="#87D2E2"/>
</linearGradient>
<linearGradient id="paint11_linear_2005_40" x1="86.0974" y1="151.079" x2="186.878" y2="151.079" gradientUnits="userSpaceOnUse">
<stop stop-color="#87D2E2"/>
<stop offset="0.52334" stop-color="#AEE9F8"/>
<stop offset="0.60779" stop-color="#A5E3F3"/>
<stop offset="0.8458" stop-color="#8FD7E6"/>
<stop offset="1" stop-color="#87D2E2"/>
</linearGradient>
<linearGradient id="paint12_linear_2005_40" x1="130.826" y1="97.3324" x2="149.043" y2="115.55" gradientUnits="userSpaceOnUse">
<stop stop-color="#202D8F"/>
<stop offset="1" stop-color="#528DCD"/>
</linearGradient>
<linearGradient id="paint13_linear_2005_40" x1="130.826" y1="97.3326" x2="149.043" y2="115.55" gradientUnits="userSpaceOnUse">
<stop stop-color="#202D8F"/>
<stop offset="1" stop-color="#528DCD"/>
</linearGradient>
</defs>

<style>

    @keyframes move2 {
        0% {
            transform: translateY(0);
        }

        50% {
            transform: translateY(-5px);
        }
        
        100% {
            transform: translateY(0);
        }
        
    }

    .el1 {
        animation: move2 4s infinite;
        animation-timing-function: ease-in-out;
    }

    .el2 {
        animation: move2 4s infinite;
        animation-timing-function: ease-in-out;
        animation-delay: 0.5s;
    }
    
</style>


</svg>
