<svg width="287" height="208" viewBox="0 0 287 208" fill="none" xmlns="http://www.w3.org/2000/svg">
<path d="M286.849 161.377C286.849 161.029 286.746 160.689 286.553 160.4C286.359 160.111 286.085 159.886 285.764 159.753C285.442 159.62 285.089 159.585 284.748 159.652C284.407 159.72 284.093 159.888 283.847 160.134L281.45 162.531L272.841 153.922C272.249 153.331 271.447 153 270.612 153C269.776 153 268.974 153.332 268.383 153.922L264.922 157.383C264.331 157.975 264 158.776 264 159.612C264 160.448 264.331 161.249 264.922 161.841L273.531 170.45L271.134 172.847C270.884 173.091 270.714 173.405 270.646 173.747C270.578 174.089 270.615 174.444 270.752 174.764C270.841 174.982 270.973 175.179 271.138 175.346C271.301 175.508 271.494 175.635 271.707 175.722C271.919 175.808 272.147 175.852 272.376 175.85L286.849 175.849L286.849 161.377Z" fill="url(#paint0_linear_2005_37)"/>
<path class='el2' d="M206.444 171.322C244.449 133.317 244.449 71.6984 206.444 33.6931C168.439 -4.31218 106.82 -4.31219 68.8147 33.6931C30.8094 71.6984 30.8094 133.317 68.8146 171.322C106.82 209.328 168.439 209.328 206.444 171.322Z" stroke="#57D4E4" stroke-width="1.43652" stroke-linecap="round" stroke-linejoin="round" stroke-dasharray="1.25 6.24"/>
<path d="M139.82 162.661C180.665 162.661 213.778 157.281 213.778 150.643C213.778 144.006 180.665 138.625 139.82 138.625C98.9735 138.625 65.8613 144.006 65.8613 150.643C65.8613 157.281 98.9735 162.661 139.82 162.661Z" fill="url(#paint1_linear_2005_37)"/>
<path style="mix-blend-mode:multiply" opacity="0.21" d="M209.795 149.313C209.795 150.45 204.122 151.372 197.123 151.372C190.125 151.372 184.452 150.45 184.452 149.313C184.452 148.175 190.125 147.254 197.123 147.254C204.122 147.254 209.795 148.175 209.795 149.313Z" fill="url(#paint2_linear_2005_37)"/>
<path style="mix-blend-mode:multiply" opacity="0.21" d="M139.126 159.255C162.726 159.255 181.857 156.146 181.857 152.311C181.857 148.476 162.726 145.367 139.126 145.367C115.526 145.367 96.394 148.476 96.394 152.311C96.394 156.146 115.526 159.255 139.126 159.255Z" fill="url(#paint3_linear_2005_37)"/>
<path d="M110.405 100.791C111.381 100.175 112.426 99.6752 113.519 99.303C111.529 96.0962 110.212 92.5187 109.647 88.7874C109.082 85.0561 109.28 81.2489 110.231 77.5968C111.182 73.9447 112.865 70.5238 115.178 67.5418C117.491 64.5598 120.385 62.0788 123.686 60.2493C126.987 58.4199 130.625 57.2801 134.379 56.8992C138.134 56.5183 141.927 56.9042 145.528 58.0335C149.129 59.1629 152.463 61.012 155.327 63.4688C158.192 65.9256 160.527 68.9387 162.192 72.3255L162.23 72.3245C164.173 72.3245 166.096 72.7071 167.891 73.4506C169.686 74.194 171.317 75.2837 172.69 76.6574C174.064 78.0311 175.154 79.6618 175.897 81.4566C176.641 83.2514 177.023 85.1751 177.023 87.1178C177.023 87.531 177.002 87.9392 176.969 88.3438C181.093 90.9075 184.379 94.6203 186.423 99.026C189.349 98.2349 192.447 98.3601 195.3 99.3848C197.681 90.9379 198.102 82.0588 196.53 73.4247C194.958 64.7906 191.435 56.6293 186.231 49.5632C181.026 42.4971 174.277 36.7128 166.497 32.6512C158.717 28.5897 150.113 26.3581 141.34 26.1268C132.567 25.8954 123.857 27.6704 115.874 31.3163C107.891 34.9622 100.846 40.3827 95.2764 47.1647C89.7065 53.9467 85.7587 61.9109 83.7341 70.4502C81.7094 78.9895 81.6614 87.8784 83.5937 96.4391C87.8235 93.7666 92.8849 92.7338 97.8236 93.5355C102.762 94.3372 107.237 96.9179 110.405 100.791Z" fill="url(#paint4_radial_2005_37)"/>
<path d="M190.288 98.5124C188.983 98.5125 187.683 98.6852 186.423 99.026C184.379 94.6203 181.093 90.9076 176.969 88.3439C177.002 87.9392 177.023 87.531 177.023 87.1178C177.023 85.1752 176.641 83.2515 175.897 81.4567C175.154 79.6619 174.064 78.0311 172.69 76.6574C171.317 75.2837 169.686 74.1941 167.891 73.4506C166.096 72.7072 164.173 72.3246 162.23 72.3246L162.192 72.3255C160.528 68.9383 158.192 65.9247 155.328 63.4675C152.463 61.0102 149.129 59.1607 145.528 58.0311C141.927 56.9015 138.134 56.5154 134.379 56.8962C130.624 57.277 126.986 58.4168 123.685 60.2464C120.384 62.076 117.489 64.5573 115.176 67.5396C112.863 70.5219 111.18 73.9431 110.229 77.5956C109.279 81.248 109.08 85.0555 109.645 88.787C110.211 92.5186 111.529 96.0963 113.519 99.3031C112.426 99.6753 111.381 100.175 110.405 100.791C107.237 96.9179 102.762 94.3372 97.8237 93.5355C92.885 92.7339 87.8236 93.7666 83.5938 96.4391C86.4266 108.938 93.343 120.136 103.25 128.265C113.158 136.395 125.491 140.991 138.302 141.329C151.113 141.667 163.672 137.727 173.994 130.131C184.316 122.535 191.813 111.717 195.3 99.3849C193.693 98.8063 191.997 98.5111 190.288 98.5124Z" fill="white"/>

<g class='el1'>
<path d="M134.823 91.169L134.369 87.5929C134.317 87.1865 134.377 86.7738 134.542 86.3988C134.707 86.0238 134.97 85.7008 135.305 85.4643L140.856 81.5385L139.765 79.9967L133.928 84.1252L129.341 87.3691L94.4573 112.04C94.3863 112.09 94.3368 112.165 94.3187 112.251C94.3005 112.336 94.315 112.424 94.3593 112.499C94.4036 112.574 94.4745 112.629 94.5577 112.654C94.641 112.679 94.7307 112.672 94.8088 112.634L133.38 93.839C133.87 93.6006 134.272 93.2148 134.531 92.7359C134.79 92.2569 134.892 91.709 134.823 91.169Z" fill="url(#paint5_linear_2005_37)"/>
<path d="M135.305 85.4643L140.856 81.5385L139.765 79.9967L133.928 84.1252L129.341 87.3691L94.4573 112.04C94.3863 112.09 94.3368 112.165 94.3187 112.251C94.3005 112.336 94.315 112.424 94.3593 112.499C94.4036 112.574 94.4745 112.629 94.5577 112.654C94.641 112.679 94.7307 112.672 94.8088 112.634L107.209 106.591L134.529 86.4329C134.692 86.0438 134.961 85.7082 135.305 85.4643Z" fill="url(#paint6_linear_2005_37)"/>
<path d="M144.817 91.4903L145.271 87.9142C145.323 87.5078 145.263 87.095 145.098 86.72C144.933 86.345 144.669 86.0219 144.335 85.7853L138.784 81.8597L139.875 80.3179L145.712 84.4465L150.299 87.6903L185.182 112.361C185.253 112.412 185.303 112.487 185.321 112.572C185.339 112.657 185.325 112.745 185.28 112.82C185.236 112.895 185.165 112.95 185.082 112.975C184.999 113 184.909 112.993 184.831 112.955L146.26 94.1601C145.77 93.9217 145.368 93.5359 145.109 93.057C144.85 92.5782 144.748 92.0303 144.817 91.4903Z" fill="url(#paint7_linear_2005_37)"/>
<path d="M144.335 85.7853L138.784 81.8597L139.875 80.3179L145.712 84.4465L150.299 87.6903L185.182 112.361C185.253 112.412 185.303 112.487 185.321 112.572C185.339 112.657 185.325 112.745 185.28 112.82C185.236 112.895 185.165 112.95 185.082 112.975C184.999 113 184.909 112.993 184.831 112.955L172.431 106.913L145.111 86.7541C144.948 86.365 144.679 86.0294 144.335 85.7853Z" fill="url(#paint8_linear_2005_37)"/>
<path d="M134.147 72.1234L137.329 73.8172C137.691 74.0097 137.993 74.2969 138.204 74.6481C138.415 74.9993 138.526 75.4013 138.526 75.8109V82.6097H140.415V69.8417L140.415 27.1155C140.415 27.0285 140.382 26.9448 140.323 26.8809C140.264 26.817 140.183 26.7776 140.097 26.7706C140.01 26.7635 139.924 26.7894 139.856 26.8429C139.787 26.8965 139.741 26.9739 139.727 27.0597L132.8 69.4038C132.712 69.9409 132.795 70.4922 133.037 70.98C133.278 71.4678 133.666 71.8676 134.147 72.1234Z" fill="url(#paint9_linear_2005_37)"/>
<path d="M138.527 75.8109V82.6097H140.415V69.8417L140.415 27.1155C140.415 27.0285 140.382 26.9448 140.323 26.8809C140.264 26.817 140.184 26.7776 140.097 26.7706C140.01 26.7635 139.924 26.7894 139.856 26.8429C139.787 26.8965 139.741 26.9739 139.727 27.0597L137.5 40.6729L138.184 74.6182C138.407 74.9758 138.526 75.3891 138.527 75.8109Z" fill="url(#paint10_linear_2005_37)"/>
</g>

<path d="M142.908 147.05H139.506V82.2741H141.063L142.908 147.05Z" fill="url(#paint11_linear_2005_37)"/>
<path d="M136.103 147.05H139.506V82.2741H137.949L136.103 147.05Z" fill="url(#paint12_linear_2005_37)"/>
<path d="M143.701 82.2294C143.701 83.0593 143.455 83.8705 142.994 84.5606C142.533 85.2506 141.878 85.7884 141.111 86.106C140.345 86.4236 139.501 86.5067 138.687 86.3448C137.873 86.1829 137.125 85.7833 136.539 85.1965C135.952 84.6097 135.552 83.8621 135.39 83.0481C135.228 82.2342 135.311 81.3905 135.629 80.6238C135.947 79.8571 136.484 79.2018 137.174 78.7407C137.864 78.2797 138.676 78.0336 139.505 78.0336C140.618 78.0336 141.686 78.4756 142.472 79.2625C143.259 80.0493 143.701 81.1166 143.701 82.2294Z" fill="url(#paint13_linear_2005_37)"/>
<path d="M139.505 84.3273C140.664 84.3273 141.603 83.388 141.603 82.2293C141.603 81.0707 140.664 80.1313 139.505 80.1313C138.347 80.1313 137.407 81.0707 137.407 82.2293C137.407 83.388 138.347 84.3273 139.505 84.3273Z" fill="url(#paint14_linear_2005_37)"/>
<path d="M171.453 120.798H169.607V148.181H171.453V120.798Z" fill="url(#paint15_linear_2005_37)"/>
<path d="M179.606 148.182H161.453L161.902 147.349C162.225 146.748 162.705 146.247 163.291 145.897C163.876 145.547 164.546 145.363 165.228 145.363H175.832C176.514 145.363 177.183 145.547 177.769 145.897C178.354 146.247 178.834 146.748 179.158 147.349L179.606 148.182Z" fill="url(#paint16_linear_2005_37)"/>
<path d="M199.319 141.345H141.742L147.595 117.902H193.464L199.319 141.345Z" fill="url(#paint17_linear_2005_37)"/>
<path d="M170.787 123.182H177.46L177.174 119.177H170.776L170.787 123.182Z" fill="url(#paint18_linear_2005_37)"/>
<path d="M147.312 128.111H155.157L155.848 123.518H148.357L147.312 128.111Z" fill="url(#paint19_linear_2005_37)"/>
<path d="M163.6 123.182H170.273L170.284 119.177H163.885L163.6 123.182Z" fill="url(#paint20_linear_2005_37)"/>
<path d="M156.413 123.182H163.087L163.393 119.177H156.995L156.413 123.182Z" fill="url(#paint21_linear_2005_37)"/>
<path d="M162.708 128.111L163.061 123.518H156.364L155.696 128.111H162.708Z" fill="url(#paint22_linear_2005_37)"/>
<path d="M177.666 119.177L177.974 123.182H184.647L184.065 119.177H177.666Z" fill="url(#paint23_linear_2005_37)"/>
<path d="M163.575 123.518L163.248 128.111H170.26L170.273 123.518H163.575Z" fill="url(#paint24_linear_2005_37)"/>
<path d="M170.246 133.566L170.259 128.482H163.221L162.858 133.566H170.246Z" fill="url(#paint25_linear_2005_37)"/>
<path d="M185.16 123.182H192.626L191.715 119.177H184.557L185.16 123.182Z" fill="url(#paint26_linear_2005_37)"/>
<path d="M177.838 128.482H170.8L170.814 133.566H178.201L177.838 128.482Z" fill="url(#paint27_linear_2005_37)"/>
<path d="M170.788 123.518L170.8 128.111H177.811L177.484 123.518H170.788Z" fill="url(#paint28_linear_2005_37)"/>
<path d="M184.695 123.518H177.999L178.351 128.111H185.363L184.695 123.518Z" fill="url(#paint29_linear_2005_37)"/>
<path d="M186.217 133.979H178.8L179.215 139.396H187.003L186.217 133.979Z" fill="url(#paint30_linear_2005_37)"/>
<path d="M185.211 123.518L185.903 128.111H193.747L192.703 123.518H185.211Z" fill="url(#paint31_linear_2005_37)"/>
<path d="M155.899 123.182L156.502 119.177H149.345L148.433 123.182H155.899Z" fill="url(#paint32_linear_2005_37)"/>
<path d="M186.787 133.979L187.603 139.396H196.315L195.083 133.979H186.787Z" fill="url(#paint33_linear_2005_37)"/>
<path d="M193.833 128.482H185.959L186.725 133.566H194.989L193.833 128.482Z" fill="url(#paint34_linear_2005_37)"/>
<path d="M154.273 133.979H145.978L144.746 139.396H153.458L154.273 133.979Z" fill="url(#paint35_linear_2005_37)"/>
<path d="M154.336 133.566L155.101 128.482H147.228L146.07 133.566H154.336Z" fill="url(#paint36_linear_2005_37)"/>
<path d="M162.68 128.482H155.642L154.903 133.566H162.291L162.68 128.482Z" fill="url(#paint37_linear_2005_37)"/>
<path d="M161.844 139.396L162.259 133.979H154.844L154.056 139.396H161.844Z" fill="url(#paint38_linear_2005_37)"/>
<path d="M178.379 128.482L178.77 133.566H186.157L185.417 128.482H178.379Z" fill="url(#paint39_linear_2005_37)"/>
<path d="M170.245 133.979H162.829L162.443 139.396H170.23L170.245 133.979Z" fill="url(#paint40_linear_2005_37)"/>
<path d="M178.23 133.979H170.815L170.83 139.396H178.617L178.23 133.979Z" fill="url(#paint41_linear_2005_37)"/>
<path d="M110.033 120.798H108.187V148.181H110.033V120.798Z" fill="url(#paint42_linear_2005_37)"/>
<path d="M118.186 148.182H100.033L100.482 147.349C100.805 146.748 101.285 146.247 101.871 145.897C102.456 145.547 103.126 145.363 103.808 145.363H114.412C115.094 145.363 115.763 145.547 116.349 145.897C116.934 146.247 117.414 146.748 117.738 147.349L118.186 148.182Z" fill="url(#paint43_linear_2005_37)"/>
<path d="M137.898 141.345H80.3213L86.1762 117.902H132.045L137.898 141.345Z" fill="url(#paint44_linear_2005_37)"/>
<path d="M109.366 123.182H116.04L115.754 119.177H109.356L109.366 123.182Z" fill="url(#paint45_linear_2005_37)"/>
<path d="M85.8926 128.111H93.7365L94.4289 123.518H86.9366L85.8926 128.111Z" fill="url(#paint46_linear_2005_37)"/>
<path d="M102.179 123.182H108.853L108.864 119.177H102.466L102.179 123.182Z" fill="url(#paint47_linear_2005_37)"/>
<path d="M94.9927 123.182H101.666L101.972 119.177H95.5739L94.9927 123.182Z" fill="url(#paint48_linear_2005_37)"/>
<path d="M101.289 128.111L101.64 123.518H94.9443L94.2764 128.111H101.289Z" fill="url(#paint49_linear_2005_37)"/>
<path d="M116.246 119.177L116.553 123.182H123.227L122.644 119.177H116.246Z" fill="url(#paint50_linear_2005_37)"/>
<path d="M102.156 123.518L101.827 128.111H108.84L108.852 123.518H102.156Z" fill="url(#paint51_linear_2005_37)"/>
<path d="M108.826 133.566L108.84 128.482H101.802L101.439 133.566H108.826Z" fill="url(#paint52_linear_2005_37)"/>
<path d="M123.74 123.182H131.207L130.294 119.177H123.137L123.74 123.182Z" fill="url(#paint53_linear_2005_37)"/>
<path d="M116.418 128.482H109.38L109.394 133.566H116.781L116.418 128.482Z" fill="url(#paint54_linear_2005_37)"/>
<path d="M109.367 123.518L109.379 128.111H116.392L116.065 123.518H109.367Z" fill="url(#paint55_linear_2005_37)"/>
<path d="M123.276 123.518H116.579L116.931 128.111H123.943L123.276 123.518Z" fill="url(#paint56_linear_2005_37)"/>
<path d="M124.796 133.979H117.381L117.796 139.396H125.584L124.796 133.979Z" fill="url(#paint57_linear_2005_37)"/>
<path d="M123.791 123.518L124.482 128.111H132.327L131.282 123.518H123.791Z" fill="url(#paint58_linear_2005_37)"/>
<path d="M94.4786 123.182L95.0818 119.177H87.9241L87.0132 123.182H94.4786Z" fill="url(#paint59_linear_2005_37)"/>
<path d="M125.366 133.979L126.182 139.396H134.894L133.662 133.979H125.366Z" fill="url(#paint60_linear_2005_37)"/>
<path d="M132.412 128.482H124.539L125.304 133.566H133.568L132.412 128.482Z" fill="url(#paint61_linear_2005_37)"/>
<path d="M92.8525 133.979H84.5567L83.3247 139.396H92.0368L92.8525 133.979Z" fill="url(#paint62_linear_2005_37)"/>
<path d="M92.9144 133.566L93.68 128.482H85.8067L84.6504 133.566H92.9144Z" fill="url(#paint63_linear_2005_37)"/>
<path d="M101.259 128.482H94.2224L93.4824 133.566H100.87L101.259 128.482Z" fill="url(#paint64_linear_2005_37)"/>
<path d="M100.423 139.396L100.838 133.979H93.4226L92.6362 139.396H100.423Z" fill="url(#paint65_linear_2005_37)"/>
<path d="M116.959 128.482L117.349 133.566H124.736L123.998 128.482H116.959Z" fill="url(#paint66_linear_2005_37)"/>
<path d="M108.825 133.979H101.41L101.022 139.396H108.81L108.825 133.979Z" fill="url(#paint67_linear_2005_37)"/>
<path d="M116.81 133.979H109.395L109.408 139.396H117.196L116.81 133.979Z" fill="url(#paint68_linear_2005_37)"/>
<path style="mix-blend-mode:multiply" d="M143.462 140.965C145.909 129.151 138.315 117.59 126.5 115.143C114.686 112.696 103.125 120.29 100.678 132.105C98.2311 143.919 105.825 155.481 117.64 157.927C129.454 160.374 141.015 152.78 143.462 140.965Z" fill="url(#paint69_radial_2005_37)"/>
<path style="mix-blend-mode:multiply" d="M181.937 141.516C184.688 129.769 177.395 118.015 165.648 115.264C153.9 112.513 142.147 119.807 139.396 131.554C136.645 143.301 143.938 155.055 155.686 157.806C167.433 160.557 179.186 153.264 181.937 141.516Z" fill="url(#paint70_radial_2005_37)"/>
<path d="M140.743 130.986H138.896V158.37H140.743V130.986Z" fill="url(#paint71_linear_2005_37)"/>
<path d="M148.896 158.37H130.743L131.192 157.537C131.515 156.937 131.995 156.435 132.581 156.085C133.166 155.736 133.836 155.551 134.518 155.551H145.122C145.804 155.551 146.473 155.736 147.059 156.085C147.645 156.435 148.125 156.937 148.448 157.537L148.896 158.37Z" fill="url(#paint72_linear_2005_37)"/>
<path d="M168.608 151.534H111.031L116.885 128.09H162.755L168.608 151.534Z" fill="url(#paint73_linear_2005_37)"/>
<path d="M140.076 133.371H146.751L146.465 129.366H140.065L140.076 133.371Z" fill="url(#paint74_linear_2005_37)"/>
<path d="M116.602 138.299H124.447L125.138 133.707H117.647L116.602 138.299Z" fill="url(#paint75_linear_2005_37)"/>
<path d="M132.889 133.371H139.563L139.573 129.366H133.174L132.889 133.371Z" fill="url(#paint76_linear_2005_37)"/>
<path d="M125.702 133.371H132.376L132.683 129.366H126.285L125.702 133.371Z" fill="url(#paint77_linear_2005_37)"/>
<path d="M131.998 138.299L132.351 133.707H125.654L124.987 138.299H131.998Z" fill="url(#paint78_linear_2005_37)"/>
<path d="M146.957 129.366L147.263 133.371H153.937L153.355 129.366H146.957Z" fill="url(#paint79_linear_2005_37)"/>
<path d="M132.866 133.707L132.538 138.299H139.55L139.562 133.707H132.866Z" fill="url(#paint80_linear_2005_37)"/>
<path d="M139.535 143.755L139.549 138.67H132.511L132.148 143.755H139.535Z" fill="url(#paint81_linear_2005_37)"/>
<path d="M154.45 133.371H161.915L161.004 129.366H153.847L154.45 133.371Z" fill="url(#paint82_linear_2005_37)"/>
<path d="M147.128 138.67H140.091L140.104 143.755H147.492L147.128 138.67Z" fill="url(#paint83_linear_2005_37)"/>
<path d="M140.078 133.707L140.09 138.299H147.102L146.774 133.707H140.078Z" fill="url(#paint84_linear_2005_37)"/>
<path d="M153.986 133.707H147.289L147.641 138.299H154.653L153.986 133.707Z" fill="url(#paint85_linear_2005_37)"/>
<path d="M155.506 144.167H148.091L148.506 149.584H156.294L155.506 144.167Z" fill="url(#paint86_linear_2005_37)"/>
<path d="M154.5 133.707L155.192 138.299H163.038L161.992 133.707H154.5Z" fill="url(#paint87_linear_2005_37)"/>
<path d="M125.189 133.371L125.792 129.366H118.635L117.724 133.371H125.189Z" fill="url(#paint88_linear_2005_37)"/>
<path d="M156.077 144.167L156.892 149.584H165.604L164.372 144.167H156.077Z" fill="url(#paint89_linear_2005_37)"/>
<path d="M163.122 138.67H155.249L156.014 143.755H164.278L163.122 138.67Z" fill="url(#paint90_linear_2005_37)"/>
<path d="M123.562 144.167H115.267L114.035 149.584H122.747L123.562 144.167Z" fill="url(#paint91_linear_2005_37)"/>
<path d="M123.625 143.755L124.39 138.67H116.517L115.361 143.755H123.625Z" fill="url(#paint92_linear_2005_37)"/>
<path d="M131.97 138.67H124.932L124.193 143.755H131.58L131.97 138.67Z" fill="url(#paint93_linear_2005_37)"/>
<path d="M131.133 149.584L131.548 144.167H124.133L123.345 149.584H131.133Z" fill="url(#paint94_linear_2005_37)"/>
<path d="M147.67 138.67L148.059 143.755H155.447L154.707 138.67H147.67Z" fill="url(#paint95_linear_2005_37)"/>
<path d="M139.534 144.167H132.119L131.733 149.584H139.521L139.534 144.167Z" fill="url(#paint96_linear_2005_37)"/>
<path d="M147.521 144.167H140.105L140.119 149.584H147.907L147.521 144.167Z" fill="url(#paint97_linear_2005_37)"/>
<defs>
<linearGradient id="paint0_linear_2005_37" x1="268.839" y1="158.107" x2="285.513" y2="174.331" gradientUnits="userSpaceOnUse">
<stop stop-color="#5A9AE0"/>
<stop offset="1" stop-color="#202D8F"/>
</linearGradient>
<linearGradient id="paint1_linear_2005_37" x1="134.586" y1="120.117" x2="147.068" y2="192.923" gradientUnits="userSpaceOnUse">
<stop stop-color="white"/>
<stop offset="0.22957" stop-color="#E8F6F9"/>
<stop offset="0.70796" stop-color="#AEE1EB"/>
<stop offset="1" stop-color="#87D2E2"/>
</linearGradient>
<linearGradient id="paint2_linear_2005_37" x1="197.123" y1="43.9537" x2="197.123" y2="166.038" gradientUnits="userSpaceOnUse">
<stop stop-color="white"/>
<stop offset="0.22957" stop-color="#E8F6F9"/>
<stop offset="0.70796" stop-color="#AEE1EB"/>
<stop offset="1" stop-color="#87D2E2"/>
</linearGradient>
<linearGradient id="paint3_linear_2005_37" x1="139.126" y1="43.9558" x2="139.126" y2="166.037" gradientUnits="userSpaceOnUse">
<stop stop-color="white"/>
<stop offset="0.22957" stop-color="#E8F6F9"/>
<stop offset="0.70796" stop-color="#AEE1EB"/>
<stop offset="1" stop-color="#87D2E2"/>
</linearGradient>
<radialGradient id="paint4_radial_2005_37" cx="0" cy="0" r="1" gradientUnits="userSpaceOnUse" gradientTransform="translate(99.133 -1.24858) scale(175.723 175.723)">
<stop stop-color="#4076C0"/>
<stop offset="0.7663" stop-color="#171E5C"/>
</radialGradient>
<linearGradient id="paint5_linear_2005_37" x1="114.639" y1="89.0659" x2="120.6" y2="105.052" gradientUnits="userSpaceOnUse">
<stop stop-color="#87D2E2"/>
<stop offset="0.40142" stop-color="#F3F7F8"/>
<stop offset="0.50524" stop-color="#C8E8EF"/>
<stop offset="0.60884" stop-color="#A5DCE8"/>
<stop offset="0.69317" stop-color="#8FD5E4"/>
<stop offset="0.74764" stop-color="#87D2E2"/>
<stop offset="1" stop-color="#77AAE2"/>
</linearGradient>
<linearGradient id="paint6_linear_2005_37" x1="103.7" y1="66.5791" x2="118.151" y2="98.2105" gradientUnits="userSpaceOnUse">
<stop stop-color="#375BBB"/>
<stop offset="0.02596" stop-color="#406BC7"/>
<stop offset="0.08021" stop-color="#4E86DC"/>
<stop offset="0.13523" stop-color="#5999EA"/>
<stop offset="0.19096" stop-color="#5FA5F3"/>
<stop offset="0.24848" stop-color="#61A9F6"/>
<stop offset="0.29741" stop-color="#5A9BED"/>
<stop offset="0.38878" stop-color="#4778D5"/>
<stop offset="0.43787" stop-color="#3B62C7"/>
<stop offset="0.46391" stop-color="#406BCD"/>
<stop offset="0.55919" stop-color="#4E86DF"/>
<stop offset="0.65581" stop-color="#5999EC"/>
<stop offset="0.75369" stop-color="#5FA5F3"/>
<stop offset="0.85469" stop-color="#61A9F6"/>
<stop offset="0.89405" stop-color="#5A9BEE"/>
<stop offset="0.96755" stop-color="#4778D9"/>
<stop offset="1" stop-color="#3D66CF"/>
</linearGradient>
<linearGradient id="paint7_linear_2005_37" x1="157.978" y1="103.423" x2="165.022" y2="92.8557" gradientUnits="userSpaceOnUse">
<stop stop-color="#87D2E2"/>
<stop offset="0.40142" stop-color="#F3F7F8"/>
<stop offset="0.50524" stop-color="#C8E8EF"/>
<stop offset="0.60884" stop-color="#A5DCE8"/>
<stop offset="0.69317" stop-color="#8FD5E4"/>
<stop offset="0.74764" stop-color="#87D2E2"/>
<stop offset="1" stop-color="#77AAE2"/>
</linearGradient>
<linearGradient id="paint8_linear_2005_37" x1="175.94" y1="66.9005" x2="161.489" y2="98.5317" gradientUnits="userSpaceOnUse">
<stop stop-color="#375BBB"/>
<stop offset="0.02596" stop-color="#406BC7"/>
<stop offset="0.08021" stop-color="#4E86DC"/>
<stop offset="0.13523" stop-color="#5999EA"/>
<stop offset="0.19096" stop-color="#5FA5F3"/>
<stop offset="0.24848" stop-color="#61A9F6"/>
<stop offset="0.29741" stop-color="#5A9BED"/>
<stop offset="0.38878" stop-color="#4778D5"/>
<stop offset="0.43787" stop-color="#3B62C7"/>
<stop offset="0.46391" stop-color="#406BCD"/>
<stop offset="0.55919" stop-color="#4E86DF"/>
<stop offset="0.65581" stop-color="#5999EC"/>
<stop offset="0.75369" stop-color="#5FA5F3"/>
<stop offset="0.85469" stop-color="#61A9F6"/>
<stop offset="0.89405" stop-color="#5A9BEE"/>
<stop offset="0.96755" stop-color="#4778D9"/>
<stop offset="1" stop-color="#3D66CF"/>
</linearGradient>
<linearGradient id="paint9_linear_2005_37" x1="134.604" y1="54.167" x2="144.358" y2="55.2508" gradientUnits="userSpaceOnUse">
<stop stop-color="#87D2E2"/>
<stop offset="0.40142" stop-color="#F3F7F8"/>
<stop offset="0.50524" stop-color="#C8E8EF"/>
<stop offset="0.60884" stop-color="#A5DCE8"/>
<stop offset="0.69317" stop-color="#8FD5E4"/>
<stop offset="0.74764" stop-color="#87D2E2"/>
<stop offset="1" stop-color="#77AAE2"/>
</linearGradient>
<linearGradient id="paint10_linear_2005_37" x1="172.196" y1="60.9123" x2="138.025" y2="54.4455" gradientUnits="userSpaceOnUse">
<stop stop-color="#375BBB"/>
<stop offset="0.02596" stop-color="#406BC7"/>
<stop offset="0.08021" stop-color="#4E86DC"/>
<stop offset="0.13523" stop-color="#5999EA"/>
<stop offset="0.19096" stop-color="#5FA5F3"/>
<stop offset="0.24848" stop-color="#61A9F6"/>
<stop offset="0.29741" stop-color="#5A9BED"/>
<stop offset="0.38878" stop-color="#4778D5"/>
<stop offset="0.43787" stop-color="#3B62C7"/>
<stop offset="0.46391" stop-color="#406BCD"/>
<stop offset="0.55919" stop-color="#4E86DF"/>
<stop offset="0.65581" stop-color="#5999EC"/>
<stop offset="0.75369" stop-color="#5FA5F3"/>
<stop offset="0.85469" stop-color="#61A9F6"/>
<stop offset="0.89405" stop-color="#5A9BEE"/>
<stop offset="0.96755" stop-color="#4778D9"/>
<stop offset="1" stop-color="#3D66CF"/>
</linearGradient>
<linearGradient id="paint11_linear_2005_37" x1="119.717" y1="85.3284" x2="136.539" y2="109.322" gradientUnits="userSpaceOnUse">
<stop stop-color="#202D8F"/>
<stop offset="1" stop-color="#528DCD"/>
</linearGradient>
<linearGradient id="paint12_linear_2005_37" x1="192.733" y1="161.453" x2="44.7419" y2="35.3865" gradientUnits="userSpaceOnUse">
<stop stop-color="#202D8F"/>
<stop offset="1" stop-color="#528DCD"/>
</linearGradient>
<linearGradient id="paint13_linear_2005_37" x1="134.077" y1="75.4572" x2="141.038" y2="84.1413" gradientUnits="userSpaceOnUse">
<stop stop-color="#F3F7F8"/>
<stop offset="0.29987" stop-color="#C8E8EF"/>
<stop offset="0.59911" stop-color="#A5DCE8"/>
<stop offset="0.84267" stop-color="#8FD5E4"/>
<stop offset="1" stop-color="#87D2E2"/>
</linearGradient>
<linearGradient id="paint14_linear_2005_37" x1="136.791" y1="78.8432" x2="140.271" y2="83.1853" gradientUnits="userSpaceOnUse">
<stop stop-color="#202D8F"/>
<stop offset="1" stop-color="#528DCD"/>
</linearGradient>
<linearGradient id="paint15_linear_2005_37" x1="163.223" y1="127.182" x2="177.837" y2="141.797" gradientUnits="userSpaceOnUse">
<stop stop-color="#171E5C"/>
<stop offset="0.55097" stop-color="#4076C0"/>
<stop offset="1" stop-color="#171E5C"/>
</linearGradient>
<linearGradient id="paint16_linear_2005_37" x1="165.839" y1="143.186" x2="175.22" y2="152.567" gradientUnits="userSpaceOnUse">
<stop stop-color="#171E5C"/>
<stop offset="0.55097" stop-color="#4076C0"/>
<stop offset="1" stop-color="#171E5C"/>
</linearGradient>
<linearGradient id="paint17_linear_2005_37" x1="144.815" y1="107.92" x2="191.239" y2="152.134" gradientUnits="userSpaceOnUse">
<stop stop-color="#F3F7F8"/>
<stop offset="0.29987" stop-color="#C8E8EF"/>
<stop offset="0.59911" stop-color="#A5DCE8"/>
<stop offset="0.84267" stop-color="#8FD5E4"/>
<stop offset="1" stop-color="#87D2E2"/>
</linearGradient>
<linearGradient id="paint18_linear_2005_37" x1="152.104" y1="99.303" x2="184.14" y2="131.339" gradientUnits="userSpaceOnUse">
<stop stop-color="#171E5C"/>
<stop offset="0.55097" stop-color="#4076C0"/>
<stop offset="1" stop-color="#171E5C"/>
</linearGradient>
<linearGradient id="paint19_linear_2005_37" x1="136.047" y1="110.282" x2="167.618" y2="141.853" gradientUnits="userSpaceOnUse">
<stop stop-color="#171E5C"/>
<stop offset="0.55097" stop-color="#4076C0"/>
<stop offset="1" stop-color="#171E5C"/>
</linearGradient>
<linearGradient id="paint20_linear_2005_37" x1="148.53" y1="102.768" x2="179.678" y2="133.916" gradientUnits="userSpaceOnUse">
<stop stop-color="#171E5C"/>
<stop offset="0.55097" stop-color="#4076C0"/>
<stop offset="1" stop-color="#171E5C"/>
</linearGradient>
<linearGradient id="paint21_linear_2005_37" x1="144.793" y1="106.07" x2="175.053" y2="136.33" gradientUnits="userSpaceOnUse">
<stop stop-color="#171E5C"/>
<stop offset="0.55097" stop-color="#4076C0"/>
<stop offset="1" stop-color="#171E5C"/>
</linearGradient>
<linearGradient id="paint22_linear_2005_37" x1="140.463" y1="106.899" x2="172.572" y2="139.008" gradientUnits="userSpaceOnUse">
<stop stop-color="#171E5C"/>
<stop offset="0.55097" stop-color="#4076C0"/>
<stop offset="1" stop-color="#171E5C"/>
</linearGradient>
<linearGradient id="paint23_linear_2005_37" x1="155.515" y1="95.6752" x2="188.439" y2="128.6" gradientUnits="userSpaceOnUse">
<stop stop-color="#171E5C"/>
<stop offset="0.55097" stop-color="#4076C0"/>
<stop offset="1" stop-color="#171E5C"/>
</linearGradient>
<linearGradient id="paint24_linear_2005_37" x1="144.218" y1="103.273" x2="177.325" y2="136.38" gradientUnits="userSpaceOnUse">
<stop stop-color="#171E5C"/>
<stop offset="0.55097" stop-color="#4076C0"/>
<stop offset="1" stop-color="#171E5C"/>
</linearGradient>
<linearGradient id="paint25_linear_2005_37" x1="139.097" y1="103.563" x2="174.645" y2="139.111" gradientUnits="userSpaceOnUse">
<stop stop-color="#171E5C"/>
<stop offset="0.55097" stop-color="#4076C0"/>
<stop offset="1" stop-color="#171E5C"/>
</linearGradient>
<linearGradient id="paint26_linear_2005_37" x1="158.711" y1="91.4534" x2="192.831" y2="125.573" gradientUnits="userSpaceOnUse">
<stop stop-color="#171E5C"/>
<stop offset="0.55097" stop-color="#4076C0"/>
<stop offset="1" stop-color="#171E5C"/>
</linearGradient>
<linearGradient id="paint27_linear_2005_37" x1="142.647" y1="99.3453" x2="179.3" y2="135.998" gradientUnits="userSpaceOnUse">
<stop stop-color="#171E5C"/>
<stop offset="0.55097" stop-color="#4076C0"/>
<stop offset="1" stop-color="#171E5C"/>
</linearGradient>
<linearGradient id="paint28_linear_2005_37" x1="147.79" y1="99.4634" x2="181.895" y2="133.568" gradientUnits="userSpaceOnUse">
<stop stop-color="#171E5C"/>
<stop offset="0.55097" stop-color="#4076C0"/>
<stop offset="1" stop-color="#171E5C"/>
</linearGradient>
<linearGradient id="paint29_linear_2005_37" x1="151.179" y1="95.471" x2="186.282" y2="130.573" gradientUnits="userSpaceOnUse">
<stop stop-color="#171E5C"/>
<stop offset="0.55097" stop-color="#4076C0"/>
<stop offset="1" stop-color="#171E5C"/>
</linearGradient>
<linearGradient id="paint30_linear_2005_37" x1="140.017" y1="93.9882" x2="180.835" y2="134.807" gradientUnits="userSpaceOnUse">
<stop stop-color="#171E5C"/>
<stop offset="0.55097" stop-color="#4076C0"/>
<stop offset="1" stop-color="#171E5C"/>
</linearGradient>
<linearGradient id="paint31_linear_2005_37" x1="154.337" y1="90.849" x2="190.721" y2="127.233" gradientUnits="userSpaceOnUse">
<stop stop-color="#171E5C"/>
<stop offset="0.55097" stop-color="#4076C0"/>
<stop offset="1" stop-color="#171E5C"/>
</linearGradient>
<linearGradient id="paint32_linear_2005_37" x1="140.464" y1="109.176" x2="170.304" y2="139.017" gradientUnits="userSpaceOnUse">
<stop stop-color="#171E5C"/>
<stop offset="0.55097" stop-color="#4076C0"/>
<stop offset="1" stop-color="#171E5C"/>
</linearGradient>
<linearGradient id="paint33_linear_2005_37" x1="143.087" y1="88.4323" x2="185.318" y2="130.663" gradientUnits="userSpaceOnUse">
<stop stop-color="#171E5C"/>
<stop offset="0.55097" stop-color="#4076C0"/>
<stop offset="1" stop-color="#171E5C"/>
</linearGradient>
<linearGradient id="paint34_linear_2005_37" x1="149.105" y1="89.8506" x2="188.219" y2="128.965" gradientUnits="userSpaceOnUse">
<stop stop-color="#171E5C"/>
<stop offset="0.55097" stop-color="#4076C0"/>
<stop offset="1" stop-color="#171E5C"/>
</linearGradient>
<linearGradient id="paint35_linear_2005_37" x1="124.96" y1="112.139" x2="161.403" y2="148.582" gradientUnits="userSpaceOnUse">
<stop stop-color="#171E5C"/>
<stop offset="0.55097" stop-color="#4076C0"/>
<stop offset="1" stop-color="#171E5C"/>
</linearGradient>
<linearGradient id="paint36_linear_2005_37" x1="130.867" y1="111.306" x2="164.654" y2="145.093" gradientUnits="userSpaceOnUse">
<stop stop-color="#171E5C"/>
<stop offset="0.55097" stop-color="#4076C0"/>
<stop offset="1" stop-color="#171E5C"/>
</linearGradient>
<linearGradient id="paint37_linear_2005_37" x1="135.345" y1="107.578" x2="169.788" y2="142.021" gradientUnits="userSpaceOnUse">
<stop stop-color="#171E5C"/>
<stop offset="0.55097" stop-color="#4076C0"/>
<stop offset="1" stop-color="#171E5C"/>
</linearGradient>
<linearGradient id="paint38_linear_2005_37" x1="129.475" y1="108.005" x2="166.69" y2="145.22" gradientUnits="userSpaceOnUse">
<stop stop-color="#171E5C"/>
<stop offset="0.55097" stop-color="#4076C0"/>
<stop offset="1" stop-color="#171E5C"/>
</linearGradient>
<linearGradient id="paint39_linear_2005_37" x1="145.994" y1="94.9251" x2="183.751" y2="132.683" gradientUnits="userSpaceOnUse">
<stop stop-color="#171E5C"/>
<stop offset="0.55097" stop-color="#4076C0"/>
<stop offset="1" stop-color="#171E5C"/>
</linearGradient>
<linearGradient id="paint40_linear_2005_37" x1="133.209" y1="103.553" x2="171.625" y2="141.969" gradientUnits="userSpaceOnUse">
<stop stop-color="#171E5C"/>
<stop offset="0.55097" stop-color="#4076C0"/>
<stop offset="1" stop-color="#171E5C"/>
</linearGradient>
<linearGradient id="paint41_linear_2005_37" x1="136.724" y1="98.8809" x2="176.34" y2="138.498" gradientUnits="userSpaceOnUse">
<stop stop-color="#171E5C"/>
<stop offset="0.55097" stop-color="#4076C0"/>
<stop offset="1" stop-color="#171E5C"/>
</linearGradient>
<linearGradient id="paint42_linear_2005_37" x1="101.802" y1="127.182" x2="116.417" y2="141.797" gradientUnits="userSpaceOnUse">
<stop stop-color="#171E5C"/>
<stop offset="0.55097" stop-color="#4076C0"/>
<stop offset="1" stop-color="#171E5C"/>
</linearGradient>
<linearGradient id="paint43_linear_2005_37" x1="104.419" y1="143.186" x2="113.8" y2="152.568" gradientUnits="userSpaceOnUse">
<stop stop-color="#171E5C"/>
<stop offset="0.55097" stop-color="#4076C0"/>
<stop offset="1" stop-color="#171E5C"/>
</linearGradient>
<linearGradient id="paint44_linear_2005_37" x1="83.3948" y1="107.92" x2="129.819" y2="152.134" gradientUnits="userSpaceOnUse">
<stop stop-color="#F3F7F8"/>
<stop offset="0.29987" stop-color="#C8E8EF"/>
<stop offset="0.59911" stop-color="#A5DCE8"/>
<stop offset="0.84267" stop-color="#8FD5E4"/>
<stop offset="1" stop-color="#87D2E2"/>
</linearGradient>
<linearGradient id="paint45_linear_2005_37" x1="90.6831" y1="99.3028" x2="122.72" y2="131.34" gradientUnits="userSpaceOnUse">
<stop stop-color="#171E5C"/>
<stop offset="0.55097" stop-color="#4076C0"/>
<stop offset="1" stop-color="#171E5C"/>
</linearGradient>
<linearGradient id="paint46_linear_2005_37" x1="74.627" y1="110.282" x2="106.199" y2="141.853" gradientUnits="userSpaceOnUse">
<stop stop-color="#171E5C"/>
<stop offset="0.55097" stop-color="#4076C0"/>
<stop offset="1" stop-color="#171E5C"/>
</linearGradient>
<linearGradient id="paint47_linear_2005_37" x1="87.1097" y1="102.768" x2="118.258" y2="133.916" gradientUnits="userSpaceOnUse">
<stop stop-color="#171E5C"/>
<stop offset="0.55097" stop-color="#4076C0"/>
<stop offset="1" stop-color="#171E5C"/>
</linearGradient>
<linearGradient id="paint48_linear_2005_37" x1="83.3728" y1="106.07" x2="113.633" y2="136.33" gradientUnits="userSpaceOnUse">
<stop stop-color="#171E5C"/>
<stop offset="0.55097" stop-color="#4076C0"/>
<stop offset="1" stop-color="#171E5C"/>
</linearGradient>
<linearGradient id="paint49_linear_2005_37" x1="79.0425" y1="106.899" x2="111.152" y2="139.008" gradientUnits="userSpaceOnUse">
<stop stop-color="#171E5C"/>
<stop offset="0.55097" stop-color="#4076C0"/>
<stop offset="1" stop-color="#171E5C"/>
</linearGradient>
<linearGradient id="paint50_linear_2005_37" x1="94.0941" y1="95.6752" x2="127.019" y2="128.6" gradientUnits="userSpaceOnUse">
<stop stop-color="#171E5C"/>
<stop offset="0.55097" stop-color="#4076C0"/>
<stop offset="1" stop-color="#171E5C"/>
</linearGradient>
<linearGradient id="paint51_linear_2005_37" x1="82.7977" y1="103.273" x2="115.905" y2="136.38" gradientUnits="userSpaceOnUse">
<stop stop-color="#171E5C"/>
<stop offset="0.55097" stop-color="#4076C0"/>
<stop offset="1" stop-color="#171E5C"/>
</linearGradient>
<linearGradient id="paint52_linear_2005_37" x1="77.6768" y1="103.563" x2="113.225" y2="139.111" gradientUnits="userSpaceOnUse">
<stop stop-color="#171E5C"/>
<stop offset="0.55097" stop-color="#4076C0"/>
<stop offset="1" stop-color="#171E5C"/>
</linearGradient>
<linearGradient id="paint53_linear_2005_37" x1="97.2907" y1="91.453" x2="131.411" y2="125.573" gradientUnits="userSpaceOnUse">
<stop stop-color="#171E5C"/>
<stop offset="0.55097" stop-color="#4076C0"/>
<stop offset="1" stop-color="#171E5C"/>
</linearGradient>
<linearGradient id="paint54_linear_2005_37" x1="81.2265" y1="99.3453" x2="117.879" y2="135.998" gradientUnits="userSpaceOnUse">
<stop stop-color="#171E5C"/>
<stop offset="0.55097" stop-color="#4076C0"/>
<stop offset="1" stop-color="#171E5C"/>
</linearGradient>
<linearGradient id="paint55_linear_2005_37" x1="86.37" y1="99.4631" x2="120.475" y2="133.568" gradientUnits="userSpaceOnUse">
<stop stop-color="#171E5C"/>
<stop offset="0.55097" stop-color="#4076C0"/>
<stop offset="1" stop-color="#171E5C"/>
</linearGradient>
<linearGradient id="paint56_linear_2005_37" x1="89.7596" y1="95.471" x2="124.862" y2="130.573" gradientUnits="userSpaceOnUse">
<stop stop-color="#171E5C"/>
<stop offset="0.55097" stop-color="#4076C0"/>
<stop offset="1" stop-color="#171E5C"/>
</linearGradient>
<linearGradient id="paint57_linear_2005_37" x1="78.5972" y1="93.9886" x2="119.415" y2="134.807" gradientUnits="userSpaceOnUse">
<stop stop-color="#171E5C"/>
<stop offset="0.55097" stop-color="#4076C0"/>
<stop offset="1" stop-color="#171E5C"/>
</linearGradient>
<linearGradient id="paint58_linear_2005_37" x1="92.9165" y1="90.849" x2="129.3" y2="127.233" gradientUnits="userSpaceOnUse">
<stop stop-color="#171E5C"/>
<stop offset="0.55097" stop-color="#4076C0"/>
<stop offset="1" stop-color="#171E5C"/>
</linearGradient>
<linearGradient id="paint59_linear_2005_37" x1="79.0441" y1="109.176" x2="108.884" y2="139.017" gradientUnits="userSpaceOnUse">
<stop stop-color="#171E5C"/>
<stop offset="0.55097" stop-color="#4076C0"/>
<stop offset="1" stop-color="#171E5C"/>
</linearGradient>
<linearGradient id="paint60_linear_2005_37" x1="81.6665" y1="88.4319" x2="123.898" y2="130.663" gradientUnits="userSpaceOnUse">
<stop stop-color="#171E5C"/>
<stop offset="0.55097" stop-color="#4076C0"/>
<stop offset="1" stop-color="#171E5C"/>
</linearGradient>
<linearGradient id="paint61_linear_2005_37" x1="87.6838" y1="89.8502" x2="126.798" y2="128.965" gradientUnits="userSpaceOnUse">
<stop stop-color="#171E5C"/>
<stop offset="0.55097" stop-color="#4076C0"/>
<stop offset="1" stop-color="#171E5C"/>
</linearGradient>
<linearGradient id="paint62_linear_2005_37" x1="63.5401" y1="112.139" x2="99.9832" y2="148.582" gradientUnits="userSpaceOnUse">
<stop stop-color="#171E5C"/>
<stop offset="0.55097" stop-color="#4076C0"/>
<stop offset="1" stop-color="#171E5C"/>
</linearGradient>
<linearGradient id="paint63_linear_2005_37" x1="69.447" y1="111.306" x2="103.233" y2="145.093" gradientUnits="userSpaceOnUse">
<stop stop-color="#171E5C"/>
<stop offset="0.55097" stop-color="#4076C0"/>
<stop offset="1" stop-color="#171E5C"/>
</linearGradient>
<linearGradient id="paint64_linear_2005_37" x1="73.9243" y1="107.577" x2="108.368" y2="142.021" gradientUnits="userSpaceOnUse">
<stop stop-color="#171E5C"/>
<stop offset="0.55097" stop-color="#4076C0"/>
<stop offset="1" stop-color="#171E5C"/>
</linearGradient>
<linearGradient id="paint65_linear_2005_37" x1="68.055" y1="108.005" x2="105.269" y2="145.219" gradientUnits="userSpaceOnUse">
<stop stop-color="#171E5C"/>
<stop offset="0.55097" stop-color="#4076C0"/>
<stop offset="1" stop-color="#171E5C"/>
</linearGradient>
<linearGradient id="paint66_linear_2005_37" x1="84.574" y1="94.9254" x2="122.331" y2="132.683" gradientUnits="userSpaceOnUse">
<stop stop-color="#171E5C"/>
<stop offset="0.55097" stop-color="#4076C0"/>
<stop offset="1" stop-color="#171E5C"/>
</linearGradient>
<linearGradient id="paint67_linear_2005_37" x1="71.789" y1="103.553" x2="110.205" y2="141.969" gradientUnits="userSpaceOnUse">
<stop stop-color="#171E5C"/>
<stop offset="0.55097" stop-color="#4076C0"/>
<stop offset="1" stop-color="#171E5C"/>
</linearGradient>
<linearGradient id="paint68_linear_2005_37" x1="75.303" y1="98.881" x2="114.92" y2="138.498" gradientUnits="userSpaceOnUse">
<stop stop-color="#171E5C"/>
<stop offset="0.55097" stop-color="#4076C0"/>
<stop offset="1" stop-color="#171E5C"/>
</linearGradient>
<radialGradient id="paint69_radial_2005_37" cx="0" cy="0" r="1" gradientUnits="userSpaceOnUse" gradientTransform="translate(122.07 136.535) scale(21.8461)">
<stop stop-color="#171E5C"/>
<stop offset="0.09541" stop-color="#43497B"/>
<stop offset="0.21805" stop-color="#74789E"/>
<stop offset="0.34383" stop-color="#9FA2BB"/>
<stop offset="0.47057" stop-color="#C2C4D4"/>
<stop offset="0.59849" stop-color="#DDDEE7"/>
<stop offset="0.72809" stop-color="#F0F0F4"/>
<stop offset="0.86049" stop-color="#FBFBFC"/>
<stop offset="1" stop-color="white"/>
</radialGradient>
<radialGradient id="paint70_radial_2005_37" cx="0" cy="0" r="1" gradientUnits="userSpaceOnUse" gradientTransform="translate(160.667 136.535) scale(21.8461)">
<stop stop-color="#171E5C"/>
<stop offset="0.09541" stop-color="#43497B"/>
<stop offset="0.21805" stop-color="#74789E"/>
<stop offset="0.34383" stop-color="#9FA2BB"/>
<stop offset="0.47057" stop-color="#C2C4D4"/>
<stop offset="0.59849" stop-color="#DDDEE7"/>
<stop offset="0.72809" stop-color="#F0F0F4"/>
<stop offset="0.86049" stop-color="#FBFBFC"/>
<stop offset="1" stop-color="white"/>
</radialGradient>
<linearGradient id="paint71_linear_2005_37" x1="132.512" y1="137.371" x2="147.127" y2="151.985" gradientUnits="userSpaceOnUse">
<stop stop-color="#171E5C"/>
<stop offset="0.55097" stop-color="#4076C0"/>
<stop offset="1" stop-color="#171E5C"/>
</linearGradient>
<linearGradient id="paint72_linear_2005_37" x1="135.129" y1="153.375" x2="144.511" y2="162.756" gradientUnits="userSpaceOnUse">
<stop stop-color="#171E5C"/>
<stop offset="0.55097" stop-color="#4076C0"/>
<stop offset="1" stop-color="#171E5C"/>
</linearGradient>
<linearGradient id="paint73_linear_2005_37" x1="114.105" y1="118.109" x2="160.529" y2="162.322" gradientUnits="userSpaceOnUse">
<stop stop-color="#F3F7F8"/>
<stop offset="0.29987" stop-color="#C8E8EF"/>
<stop offset="0.59911" stop-color="#A5DCE8"/>
<stop offset="0.84267" stop-color="#8FD5E4"/>
<stop offset="1" stop-color="#87D2E2"/>
</linearGradient>
<linearGradient id="paint74_linear_2005_37" x1="121.393" y1="109.491" x2="153.431" y2="141.528" gradientUnits="userSpaceOnUse">
<stop stop-color="#171E5C"/>
<stop offset="0.55097" stop-color="#4076C0"/>
<stop offset="1" stop-color="#171E5C"/>
</linearGradient>
<linearGradient id="paint75_linear_2005_37" x1="105.337" y1="120.47" x2="136.908" y2="152.041" gradientUnits="userSpaceOnUse">
<stop stop-color="#171E5C"/>
<stop offset="0.55097" stop-color="#4076C0"/>
<stop offset="1" stop-color="#171E5C"/>
</linearGradient>
<linearGradient id="paint76_linear_2005_37" x1="117.819" y1="112.956" x2="148.968" y2="144.105" gradientUnits="userSpaceOnUse">
<stop stop-color="#171E5C"/>
<stop offset="0.55097" stop-color="#4076C0"/>
<stop offset="1" stop-color="#171E5C"/>
</linearGradient>
<linearGradient id="paint77_linear_2005_37" x1="114.083" y1="116.258" x2="144.344" y2="146.519" gradientUnits="userSpaceOnUse">
<stop stop-color="#171E5C"/>
<stop offset="0.55097" stop-color="#4076C0"/>
<stop offset="1" stop-color="#171E5C"/>
</linearGradient>
<linearGradient id="paint78_linear_2005_37" x1="109.753" y1="117.088" x2="141.862" y2="149.196" gradientUnits="userSpaceOnUse">
<stop stop-color="#171E5C"/>
<stop offset="0.55097" stop-color="#4076C0"/>
<stop offset="1" stop-color="#171E5C"/>
</linearGradient>
<linearGradient id="paint79_linear_2005_37" x1="124.804" y1="105.863" x2="157.729" y2="138.788" gradientUnits="userSpaceOnUse">
<stop stop-color="#171E5C"/>
<stop offset="0.55097" stop-color="#4076C0"/>
<stop offset="1" stop-color="#171E5C"/>
</linearGradient>
<linearGradient id="paint80_linear_2005_37" x1="113.508" y1="113.461" x2="146.615" y2="146.568" gradientUnits="userSpaceOnUse">
<stop stop-color="#171E5C"/>
<stop offset="0.55097" stop-color="#4076C0"/>
<stop offset="1" stop-color="#171E5C"/>
</linearGradient>
<linearGradient id="paint81_linear_2005_37" x1="108.387" y1="113.751" x2="143.935" y2="149.299" gradientUnits="userSpaceOnUse">
<stop stop-color="#171E5C"/>
<stop offset="0.55097" stop-color="#4076C0"/>
<stop offset="1" stop-color="#171E5C"/>
</linearGradient>
<linearGradient id="paint82_linear_2005_37" x1="128" y1="101.641" x2="162.121" y2="135.762" gradientUnits="userSpaceOnUse">
<stop stop-color="#171E5C"/>
<stop offset="0.55097" stop-color="#4076C0"/>
<stop offset="1" stop-color="#171E5C"/>
</linearGradient>
<linearGradient id="paint83_linear_2005_37" x1="111.937" y1="109.534" x2="148.59" y2="146.187" gradientUnits="userSpaceOnUse">
<stop stop-color="#171E5C"/>
<stop offset="0.55097" stop-color="#4076C0"/>
<stop offset="1" stop-color="#171E5C"/>
</linearGradient>
<linearGradient id="paint84_linear_2005_37" x1="117.081" y1="109.652" x2="151.185" y2="143.756" gradientUnits="userSpaceOnUse">
<stop stop-color="#171E5C"/>
<stop offset="0.55097" stop-color="#4076C0"/>
<stop offset="1" stop-color="#171E5C"/>
</linearGradient>
<linearGradient id="paint85_linear_2005_37" x1="120.47" y1="105.66" x2="155.572" y2="140.762" gradientUnits="userSpaceOnUse">
<stop stop-color="#171E5C"/>
<stop offset="0.55097" stop-color="#4076C0"/>
<stop offset="1" stop-color="#171E5C"/>
</linearGradient>
<linearGradient id="paint86_linear_2005_37" x1="109.306" y1="104.176" x2="150.125" y2="144.995" gradientUnits="userSpaceOnUse">
<stop stop-color="#171E5C"/>
<stop offset="0.55097" stop-color="#4076C0"/>
<stop offset="1" stop-color="#171E5C"/>
</linearGradient>
<linearGradient id="paint87_linear_2005_37" x1="123.626" y1="101.037" x2="160.01" y2="137.421" gradientUnits="userSpaceOnUse">
<stop stop-color="#171E5C"/>
<stop offset="0.55097" stop-color="#4076C0"/>
<stop offset="1" stop-color="#171E5C"/>
</linearGradient>
<linearGradient id="paint88_linear_2005_37" x1="109.754" y1="119.364" x2="139.595" y2="149.205" gradientUnits="userSpaceOnUse">
<stop stop-color="#171E5C"/>
<stop offset="0.55097" stop-color="#4076C0"/>
<stop offset="1" stop-color="#171E5C"/>
</linearGradient>
<linearGradient id="paint89_linear_2005_37" x1="112.376" y1="98.6193" x2="154.608" y2="140.851" gradientUnits="userSpaceOnUse">
<stop stop-color="#171E5C"/>
<stop offset="0.55097" stop-color="#4076C0"/>
<stop offset="1" stop-color="#171E5C"/>
</linearGradient>
<linearGradient id="paint90_linear_2005_37" x1="118.393" y1="100.038" x2="157.508" y2="139.153" gradientUnits="userSpaceOnUse">
<stop stop-color="#171E5C"/>
<stop offset="0.55097" stop-color="#4076C0"/>
<stop offset="1" stop-color="#171E5C"/>
</linearGradient>
<linearGradient id="paint91_linear_2005_37" x1="94.2497" y1="122.327" x2="130.693" y2="158.77" gradientUnits="userSpaceOnUse">
<stop stop-color="#171E5C"/>
<stop offset="0.55097" stop-color="#4076C0"/>
<stop offset="1" stop-color="#171E5C"/>
</linearGradient>
<linearGradient id="paint92_linear_2005_37" x1="100.157" y1="121.495" x2="133.944" y2="155.281" gradientUnits="userSpaceOnUse">
<stop stop-color="#171E5C"/>
<stop offset="0.55097" stop-color="#4076C0"/>
<stop offset="1" stop-color="#171E5C"/>
</linearGradient>
<linearGradient id="paint93_linear_2005_37" x1="104.634" y1="117.766" x2="139.078" y2="152.21" gradientUnits="userSpaceOnUse">
<stop stop-color="#171E5C"/>
<stop offset="0.55097" stop-color="#4076C0"/>
<stop offset="1" stop-color="#171E5C"/>
</linearGradient>
<linearGradient id="paint94_linear_2005_37" x1="98.7643" y1="118.193" x2="135.979" y2="155.408" gradientUnits="userSpaceOnUse">
<stop stop-color="#171E5C"/>
<stop offset="0.55097" stop-color="#4076C0"/>
<stop offset="1" stop-color="#171E5C"/>
</linearGradient>
<linearGradient id="paint95_linear_2005_37" x1="115.284" y1="105.113" x2="153.041" y2="142.871" gradientUnits="userSpaceOnUse">
<stop stop-color="#171E5C"/>
<stop offset="0.55097" stop-color="#4076C0"/>
<stop offset="1" stop-color="#171E5C"/>
</linearGradient>
<linearGradient id="paint96_linear_2005_37" x1="102.499" y1="113.741" x2="140.915" y2="152.157" gradientUnits="userSpaceOnUse">
<stop stop-color="#171E5C"/>
<stop offset="0.55097" stop-color="#4076C0"/>
<stop offset="1" stop-color="#171E5C"/>
</linearGradient>
<linearGradient id="paint97_linear_2005_37" x1="106.013" y1="109.068" x2="145.63" y2="148.686" gradientUnits="userSpaceOnUse">
<stop stop-color="#171E5C"/>
<stop offset="0.55097" stop-color="#4076C0"/>
<stop offset="1" stop-color="#171E5C"/>
</linearGradient>
</defs>

<style>
    @keyframes move1 {
        0% {
            transform: rotate(0);
        }
        
        100% {
            transform: rotate(360deg);
        }
        
    }

    @keyframes move2 {
        0% {
            transform: translateY(0);
        }

        50% {
            transform: translateY(10px);
        }
        
        100% {
            transform: translateY(0);
        }
        
    }

    .el1 {
        animation: move1 13s infinite;
        animation-timing-function: ease-in-out;
        transform-origin: 139px 83px;
    }
    
</style>

</svg>
