<svg width="275" height="212" viewBox="0 0 275 212" fill="none" xmlns="http://www.w3.org/2000/svg">
<path d="M260.377 9.00043C260.029 9.00045 259.689 9.10361 259.4 9.29681C259.111 9.49 258.886 9.76459 258.753 10.0859C258.62 10.4071 258.585 10.7606 258.652 11.1017C258.72 11.4428 258.888 11.7561 259.134 12.0021L261.531 14.3996L252.922 23.009C252.331 23.6006 252 24.4022 252 25.2379C252 26.0735 252.332 26.875 252.922 27.4666L256.383 30.9279C256.975 31.518 257.776 31.8494 258.612 31.8494C259.447 31.8494 260.249 31.518 260.84 30.9279L269.45 22.3185L271.847 24.7158C272.091 24.9651 272.405 25.1349 272.747 25.2031C273.089 25.2712 273.444 25.2345 273.764 25.0977C273.982 25.0082 274.179 24.8769 274.346 24.7112C274.508 24.5484 274.635 24.3552 274.722 24.1427C274.808 23.9301 274.852 23.7026 274.85 23.4731L274.849 9L260.377 9.00043Z" fill="url(#paint0_linear_2005_38)"/>
<path d="M205.985 175.185C243.99 137.18 243.99 75.5611 205.985 37.5558C167.98 -0.449494 106.361 -0.449491 68.3557 37.5558C30.3504 75.5611 30.3504 137.18 68.3557 175.185C106.361 213.191 167.98 213.191 205.985 175.185Z" stroke="#57D4E4" stroke-width="1.43652" stroke-linecap="round" stroke-linejoin="round" stroke-dasharray="1.25 6.24"/>
<path d="M127.402 77.6743C126.255 77.6731 125.155 77.2169 124.344 76.4058C123.532 75.5947 123.076 74.4949 123.075 73.3478V64.9773H101.971V73.3478C101.97 74.4949 101.514 75.5946 100.703 76.4057C99.8916 77.2168 98.7919 77.6731 97.6448 77.6743C95.7493 77.6765 93.9321 78.4304 92.5918 79.7707C91.2516 81.111 90.4977 82.9283 90.4956 84.8237V153.849C90.4975 155.406 91.1168 156.899 92.2178 158C93.3187 159.101 94.8114 159.72 96.3683 159.722H128.678C130.235 159.72 131.728 159.101 132.829 158C133.93 156.899 134.549 155.406 134.551 153.849V84.8237C134.549 82.9283 133.795 81.1111 132.455 79.7707C131.114 78.4304 129.297 77.6765 127.402 77.6743Z" fill="url(#paint1_linear_2005_38)"/>
<path d="M110.296 91.4461C104.361 93.4431 97.9757 93.6834 91.9072 92.138V153.849C91.9072 154.435 92.0226 155.015 92.2468 155.556C92.471 156.097 92.7996 156.589 93.2138 157.003C93.6281 157.418 94.1199 157.746 94.6611 157.97C95.2024 158.195 95.7825 158.31 96.3683 158.31H128.678C129.862 158.31 130.996 157.84 131.833 157.003C132.669 156.167 133.139 155.032 133.139 153.849V92.3219C126.387 90.2524 117.802 88.8534 110.296 91.4461Z" fill="url(#paint2_linear_2005_38)"/>
<path d="M110.296 91.4461C104.361 93.4431 97.9757 93.6834 91.9072 92.138V104.557C97.9757 106.102 104.361 105.862 110.296 103.865C117.802 101.272 126.387 102.671 133.139 104.741V92.3219C126.387 90.2524 117.802 88.8534 110.296 91.4461Z" fill="url(#paint3_linear_2005_38)"/>
<path d="M110.296 103.865C104.361 105.862 97.9757 106.102 91.9072 104.557V116.975C97.9757 118.521 104.361 118.28 110.296 116.283C117.802 113.691 126.387 115.09 133.139 117.159V104.74C126.387 102.671 117.802 101.272 110.296 103.865Z" fill="url(#paint4_linear_2005_38)"/>
<path d="M110.296 116.283C104.361 118.28 97.9757 118.521 91.9072 116.975V129.394C97.9757 130.939 104.361 130.699 110.296 128.702C117.802 126.109 126.387 127.508 133.139 129.578V117.159C126.387 115.09 117.802 113.691 110.296 116.283Z" fill="url(#paint5_linear_2005_38)"/>
<mask id="mask0_2005_38" style="mask-type:luminance" maskUnits="userSpaceOnUse" x="90" y="64" width="45" height="96">
<path d="M127.402 77.6743C126.255 77.6731 125.155 77.2169 124.344 76.4058C123.532 75.5947 123.076 74.4949 123.075 73.3478V64.9773H101.971V73.3478C101.97 74.4949 101.514 75.5946 100.703 76.4057C99.8916 77.2168 98.7919 77.6731 97.6448 77.6743C95.7493 77.6765 93.9321 78.4304 92.5918 79.7707C91.2516 81.111 90.4977 82.9283 90.4956 84.8237V153.849C90.4975 155.406 91.1168 156.899 92.2178 158C93.3187 159.101 94.8114 159.72 96.3683 159.722H128.678C130.235 159.72 131.728 159.101 132.829 158C133.93 156.899 134.549 155.406 134.551 153.849V84.8237C134.549 82.9283 133.795 81.1111 132.455 79.7707C131.114 78.4304 129.297 77.6765 127.402 77.6743Z" fill="white"/>
</mask>
<g mask="url(#mask0_2005_38)">
<path style="mix-blend-mode:multiply" d="M111.266 169.301C130.593 169.301 146.26 165.238 146.26 160.226C146.26 155.214 130.593 151.151 111.266 151.151C91.9393 151.151 76.272 155.214 76.272 160.226C76.272 165.238 91.9393 169.301 111.266 169.301Z" fill="url(#paint6_radial_2005_38)"/>
<path style="mix-blend-mode:multiply" d="M115.532 149.006C120.544 149.006 124.607 133.339 124.607 114.012C124.607 94.6858 120.544 79.0185 115.532 79.0185C110.52 79.0185 106.457 94.6858 106.457 114.012C106.457 133.339 110.52 149.006 115.532 149.006Z" fill="url(#paint7_radial_2005_38)"/>
<path style="mix-blend-mode:multiply" d="M114.21 168.177C119.222 168.177 123.285 152.51 123.285 133.183C123.285 113.857 119.222 98.1893 114.21 98.1893C109.198 98.1893 105.135 113.857 105.135 133.183C105.135 152.51 109.198 168.177 114.21 168.177Z" fill="url(#paint8_radial_2005_38)"/>
</g>
<g class='el2'>
<path d="M124.046 47.0625C124.047 45.0245 123.509 43.0225 122.484 41.2606C121.46 39.4988 119.987 38.0402 118.214 37.0336C116.442 36.027 114.435 35.5084 112.397 35.5308C110.359 35.5531 108.364 36.1156 106.614 37.1608C104.865 38.2061 103.424 39.6967 102.438 41.4806C101.453 43.2645 100.958 45.2778 101.004 47.3153C101.051 49.3528 101.637 51.3415 102.703 53.0785C103.769 54.8155 105.277 56.2388 107.072 57.203C107.588 57.4895 108.017 57.91 108.314 58.4201C108.61 58.9301 108.764 59.5108 108.758 60.1009V145.129C108.743 146.127 109.114 147.092 109.794 147.823C110.475 148.554 111.411 148.994 112.408 149.051C112.912 149.066 113.414 148.98 113.884 148.798C114.354 148.616 114.783 148.341 115.145 147.99C115.507 147.639 115.795 147.219 115.991 146.754C116.188 146.29 116.289 145.791 116.289 145.287V60.0999C116.285 59.5079 116.44 58.9257 116.739 58.4146C117.038 57.9036 117.469 57.4827 117.987 57.1963C119.818 56.2123 121.349 54.7504 122.416 52.966C123.483 51.1816 124.046 49.1415 124.046 47.0625Z" fill="url(#paint9_radial_2005_38)"/>
<path d="M112.524 146.216C112.64 146.216 112.755 146.193 112.863 146.148C112.97 146.104 113.068 146.039 113.15 145.956C113.232 145.874 113.297 145.777 113.342 145.669C113.386 145.562 113.409 145.447 113.409 145.33V60.197C113.409 59.9623 113.316 59.7371 113.15 59.5711C112.984 59.4051 112.759 59.3119 112.524 59.3119C112.289 59.3119 112.064 59.4051 111.898 59.5711C111.732 59.7371 111.639 59.9623 111.639 60.197V145.33C111.639 145.447 111.662 145.562 111.706 145.669C111.751 145.777 111.816 145.874 111.898 145.956C111.98 146.039 112.078 146.104 112.185 146.148C112.292 146.193 112.408 146.216 112.524 146.216Z" fill="white"/>
<path d="M111.814 53.7459C110.879 53.7459 110.011 53.5938 109.212 53.2896C108.423 52.9855 107.736 52.5574 107.15 52.0054C106.576 51.4534 106.125 50.8056 105.798 50.0621C105.483 49.3186 105.325 48.5074 105.325 47.6287C105.325 46.75 105.483 45.9389 105.798 45.1954C106.125 44.4519 106.581 43.8041 107.167 43.2521C107.753 42.7001 108.44 42.272 109.229 41.9679C110.017 41.6637 110.873 41.5116 111.797 41.5116C112.732 41.5116 113.588 41.6637 114.366 41.9679C115.154 42.272 115.836 42.7001 116.41 43.2521C116.996 43.8041 117.452 44.4519 117.779 45.1954C118.106 45.9277 118.269 46.7388 118.269 47.6287C118.269 48.5074 118.106 49.3242 117.779 50.079C117.452 50.8225 116.996 51.4703 116.41 52.0223C115.836 52.563 115.154 52.9855 114.366 53.2896C113.588 53.5938 112.738 53.7459 111.814 53.7459ZM111.797 51.4139C112.327 51.4139 112.811 51.3238 113.25 51.1436C113.701 50.9633 114.095 50.7042 114.433 50.3662C114.771 50.0283 115.03 49.6284 115.21 49.1665C115.402 48.7046 115.498 48.192 115.498 47.6287C115.498 47.0655 115.402 46.5529 115.21 46.091C115.03 45.6291 114.771 45.2292 114.433 44.8912C114.106 44.5533 113.718 44.2942 113.267 44.1139C112.817 43.9337 112.327 43.8436 111.797 43.8436C111.268 43.8436 110.778 43.9337 110.327 44.1139C109.888 44.2942 109.499 44.5533 109.161 44.8912C108.823 45.2292 108.558 45.6291 108.367 46.091C108.186 46.5529 108.096 47.0655 108.096 47.6287C108.096 48.1807 108.186 48.6933 108.367 49.1665C108.558 49.6284 108.817 50.0283 109.144 50.3662C109.482 50.7042 109.876 50.9633 110.327 51.1436C110.778 51.3238 111.268 51.4139 111.797 51.4139Z" fill="white"/>
<path d="M115.499 51.6925V50.6592L118.156 48.1496C118.366 47.9593 118.52 47.7888 118.618 47.6379C118.717 47.487 118.782 47.3492 118.815 47.2245C118.854 47.0999 118.874 46.9851 118.874 46.8801C118.874 46.6045 118.779 46.3946 118.589 46.2502C118.405 46.0993 118.133 46.0239 117.772 46.0239C117.483 46.0239 117.214 46.0796 116.965 46.1912C116.722 46.3027 116.516 46.4766 116.345 46.7128L115.184 45.9648C115.446 45.5712 115.814 45.2595 116.286 45.0299C116.758 44.8003 117.303 44.6855 117.92 44.6855C118.431 44.6855 118.877 44.7707 119.258 44.9413C119.645 45.1054 119.944 45.3383 120.154 45.6401C120.37 45.9419 120.478 46.3027 120.478 46.7226C120.478 46.9457 120.449 47.1688 120.39 47.3918C120.337 47.6083 120.226 47.838 120.055 48.0807C119.891 48.3235 119.648 48.5958 119.327 48.8976L117.122 50.9741L116.817 50.3934H120.705V51.6925H115.499Z" fill="white"/>
</g>
<path d="M99.6135 67.8615C99.6135 68.9051 99.304 69.9252 98.7243 70.7929C98.1445 71.6607 97.3204 72.337 96.3563 72.7363C95.3921 73.1357 94.3312 73.2402 93.3077 73.0366C92.2842 72.833 91.344 72.3305 90.606 71.5926C89.8681 70.8547 89.3656 69.9145 89.162 68.891C88.9583 67.8674 89.0628 66.8065 89.4622 65.8423C89.8615 64.8782 90.5378 64.0541 91.4055 63.4743C92.2732 62.8945 93.2933 62.585 94.3369 62.585C95.0298 62.585 95.716 62.7214 96.3562 62.9866C96.9964 63.2518 97.578 63.6404 98.068 64.1304C98.558 64.6204 98.9467 65.2021 99.2119 65.8422C99.477 66.4824 99.6135 67.1686 99.6135 67.8615Z" fill="url(#paint10_radial_2005_38)"/>
<path d="M96.8811 67.3048H94.8934V65.3171C94.8934 65.1695 94.8348 65.028 94.7304 64.9236C94.6261 64.8193 94.4845 64.7606 94.3369 64.7606C94.1893 64.7606 94.0478 64.8193 93.9434 64.9236C93.8391 65.028 93.7804 65.1695 93.7804 65.3171V67.3048H91.7928C91.7197 67.3048 91.6474 67.3192 91.5799 67.3472C91.5123 67.3751 91.451 67.4162 91.3993 67.4678C91.3476 67.5195 91.3067 67.5809 91.2787 67.6484C91.2507 67.7159 91.2363 67.7883 91.2363 67.8613C91.2363 67.9344 91.2507 68.0068 91.2787 68.0743C91.3067 68.1418 91.3476 68.2032 91.3993 68.2548C91.451 68.3065 91.5123 68.3475 91.5799 68.3755C91.6474 68.4034 91.7197 68.4178 91.7928 68.4178H93.7804V70.4054C93.7804 70.553 93.8391 70.6945 93.9434 70.7989C94.0478 70.9033 94.1893 70.9619 94.3369 70.9619C94.4845 70.9619 94.6261 70.9033 94.7304 70.7989C94.8348 70.6945 94.8934 70.553 94.8934 70.4054V68.4178H96.8811C96.9542 68.4178 97.0266 68.4034 97.0941 68.3755C97.1616 68.3475 97.223 68.3065 97.2746 68.2548C97.3263 68.2032 97.3673 68.1418 97.3953 68.0743C97.4232 68.0068 97.4376 67.9344 97.4376 67.8613C97.4376 67.7883 97.4232 67.7159 97.3953 67.6484C97.3673 67.5809 97.3263 67.5195 97.2746 67.4678C97.223 67.4162 97.1616 67.3751 97.0941 67.3472C97.0266 67.3192 96.9542 67.3048 96.8811 67.3048Z" fill="white"/>
<path d="M175.648 77.6743C174.501 77.6731 173.401 77.2169 172.59 76.4058C171.779 75.5947 171.323 74.4949 171.321 73.3478V64.9773H150.218V73.3478C150.217 74.4949 149.76 75.5946 148.949 76.4057C148.138 77.2168 147.038 77.673 145.891 77.6743C143.996 77.6765 142.179 78.4304 140.838 79.7707C139.498 81.111 138.744 82.9283 138.742 84.8237V153.849C138.744 155.406 139.363 156.899 140.464 158C141.565 159.101 143.058 159.72 144.615 159.722H176.925C178.482 159.72 179.974 159.101 181.075 158C182.176 156.899 182.795 155.406 182.797 153.849V84.8237C182.795 82.9283 182.041 81.1111 180.701 79.7708C179.361 78.4305 177.544 77.6765 175.648 77.6743Z" fill="url(#paint11_linear_2005_38)"/>
<path d="M158.543 91.4461C152.608 93.4431 146.222 93.6834 140.154 92.138V153.849C140.154 154.435 140.269 155.015 140.493 155.556C140.718 156.097 141.046 156.589 141.46 157.003C141.875 157.418 142.366 157.746 142.908 157.97C143.449 158.195 144.029 158.31 144.615 158.31H176.925C177.511 158.31 178.091 158.194 178.632 157.97C179.173 157.746 179.665 157.417 180.079 157.003C180.494 156.589 180.822 156.097 181.046 155.556C181.271 155.015 181.386 154.435 181.386 153.849V92.3219C174.633 90.2524 166.048 88.8534 158.543 91.4461Z" fill="url(#paint12_linear_2005_38)"/>
<path d="M158.543 91.4461C152.608 93.4431 146.222 93.6834 140.154 92.138V104.557C146.222 106.102 152.608 105.862 158.543 103.865C166.048 101.272 174.633 102.671 181.386 104.741V92.3219C174.633 90.2524 166.048 88.8534 158.543 91.4461Z" fill="url(#paint13_linear_2005_38)"/>
<path d="M158.543 103.865C152.608 105.862 146.222 106.102 140.154 104.557V116.975C146.222 118.521 152.608 118.28 158.543 116.283C166.048 113.691 174.633 115.09 181.386 117.159V104.74C174.633 102.671 166.048 101.272 158.543 103.865Z" fill="url(#paint14_linear_2005_38)"/>
<path d="M158.543 116.283C152.608 118.28 146.222 118.521 140.154 116.975V129.394C146.222 130.939 152.608 130.699 158.543 128.702C166.048 126.109 174.633 127.508 181.386 129.578V117.159C174.633 115.09 166.048 113.691 158.543 116.283Z" fill="url(#paint15_linear_2005_38)"/>
<mask id="mask1_2005_38" style="mask-type:luminance" maskUnits="userSpaceOnUse" x="138" y="64" width="45" height="96">
<path d="M175.648 77.6743C174.501 77.6731 173.401 77.2168 172.59 76.4057C171.779 75.5946 171.323 74.4949 171.322 73.3478V64.9773H150.218V73.3478C150.217 74.4949 149.76 75.5946 148.949 76.4057C148.138 77.2168 147.038 77.6731 145.891 77.6743C143.996 77.6765 142.179 78.4304 140.838 79.7707C139.498 81.111 138.744 82.9283 138.742 84.8237V153.849C138.744 155.406 139.363 156.899 140.464 158C141.565 159.101 143.058 159.72 144.615 159.722H176.925C178.482 159.72 179.974 159.101 181.075 158C182.176 156.899 182.796 155.406 182.797 153.849V84.8237C182.795 82.9283 182.041 81.1111 180.701 79.7707C179.361 78.4304 177.544 77.6765 175.648 77.6743Z" fill="white"/>
</mask>
<g mask="url(#mask1_2005_38)">
<path style="mix-blend-mode:multiply" d="M159.512 169.301C178.839 169.301 194.506 165.238 194.506 160.226C194.506 155.214 178.839 151.151 159.512 151.151C140.185 151.151 124.518 155.214 124.518 160.226C124.518 165.238 140.185 169.301 159.512 169.301Z" fill="url(#paint16_radial_2005_38)"/>
<path style="mix-blend-mode:multiply" d="M163.778 149.006C168.79 149.006 172.853 133.339 172.853 114.012C172.853 94.6858 168.79 79.0185 163.778 79.0185C158.766 79.0185 154.703 94.6858 154.703 114.012C154.703 133.339 158.766 149.006 163.778 149.006Z" fill="url(#paint17_radial_2005_38)"/>
<path style="mix-blend-mode:multiply" d="M162.456 98.1893C167.468 98.1893 171.531 113.857 171.531 133.183C171.531 152.51 167.468 168.177 162.456 168.177C157.444 168.177 153.381 152.51 153.381 133.183C153.381 113.857 157.444 98.1893 162.456 98.1893Z" fill="url(#paint18_radial_2005_38)"/>
</g>


<g class="el1">
<path d="M172.292 47.0627C172.294 45.0247 171.755 43.0227 170.73 41.2608C169.706 39.499 168.233 38.0404 166.461 37.0338C164.688 36.0272 162.681 35.5086 160.643 35.531C158.605 35.5534 156.61 36.1158 154.86 37.1611C153.111 38.2063 151.67 39.6969 150.684 41.4808C149.699 43.2647 149.204 45.278 149.251 47.3155C149.297 49.353 149.883 51.3416 150.949 53.0787C152.015 54.8157 153.523 56.2389 155.318 57.2032C155.834 57.4897 156.263 57.9101 156.56 58.4202C156.856 58.9303 157.01 59.511 157.004 60.1011V145.129C156.989 146.127 157.36 147.092 158.041 147.823C158.721 148.554 159.657 148.994 160.654 149.051C161.158 149.066 161.66 148.98 162.13 148.798C162.6 148.616 163.029 148.341 163.391 147.99C163.753 147.639 164.041 147.219 164.237 146.754C164.434 146.29 164.535 145.791 164.535 145.287V60.1001C164.531 59.5081 164.686 58.9259 164.985 58.4148C165.284 57.9037 165.715 57.4828 166.233 57.1965C168.065 56.2125 169.595 54.7506 170.662 52.9662C171.729 51.1818 172.292 49.1416 172.292 47.0627Z" fill="url(#paint19_radial_2005_38)"/>
<path d="M160.544 146.216C160.66 146.216 160.775 146.193 160.883 146.148C160.99 146.104 161.088 146.039 161.17 145.956C161.252 145.874 161.317 145.777 161.362 145.669C161.406 145.562 161.429 145.447 161.429 145.33V60.197C161.429 59.9623 161.336 59.7371 161.17 59.5711C161.004 59.4051 160.779 59.3119 160.544 59.3119C160.428 59.3119 160.312 59.3348 160.205 59.3792C160.098 59.4237 160 59.4889 159.918 59.5711C159.836 59.6533 159.771 59.7509 159.726 59.8583C159.682 59.9657 159.659 60.0808 159.659 60.197V145.33C159.659 145.447 159.682 145.562 159.726 145.669C159.771 145.777 159.836 145.874 159.918 145.956C160 146.039 160.098 146.104 160.205 146.148C160.312 146.193 160.428 146.216 160.544 146.216Z" fill="white"/>
<path d="M162.426 41.7144H165.164V53.5431H162.426V41.7144ZM157.053 53.5431H154.315V41.7144H157.053V53.5431ZM162.629 48.6933H156.85V46.3783H162.629V48.6933Z" fill="white"/>
<path d="M163.744 51.6925V50.6592L166.401 48.1496C166.611 47.9593 166.765 47.7888 166.863 47.6379C166.962 47.487 167.027 47.3492 167.06 47.2245C167.1 47.0999 167.119 46.9851 167.119 46.8801C167.119 46.6045 167.024 46.3946 166.834 46.2502C166.65 46.0993 166.378 46.0239 166.017 46.0239C165.728 46.0239 165.459 46.0796 165.21 46.1912C164.967 46.3027 164.761 46.4766 164.59 46.7128L163.429 45.9648C163.691 45.5712 164.059 45.2595 164.531 45.0299C165.003 44.8003 165.548 44.6855 166.165 44.6855C166.676 44.6855 167.123 44.7707 167.503 44.9413C167.89 45.1054 168.189 45.3383 168.399 45.6401C168.615 45.9419 168.723 46.3027 168.723 46.7226C168.723 46.9457 168.694 47.1688 168.635 47.3918C168.582 47.6083 168.471 47.838 168.3 48.0807C168.136 48.3235 167.893 48.5958 167.572 48.8976L165.368 50.9741L165.062 50.3934H168.95V51.6925H163.744Z" fill="white"/>
</g>

<path d="M147.86 67.8615C147.86 68.9051 147.55 69.9252 146.97 70.7929C146.391 71.6607 145.567 72.337 144.602 72.7363C143.638 73.1357 142.577 73.2402 141.554 73.0366C140.53 72.833 139.59 72.3305 138.852 71.5926C138.114 70.8547 137.612 69.9145 137.408 68.891C137.204 67.8674 137.309 66.8065 137.708 65.8423C138.108 64.8782 138.784 64.0541 139.652 63.4743C140.519 62.8945 141.539 62.585 142.583 62.585C143.276 62.585 143.962 62.7214 144.602 62.9866C145.242 63.2518 145.824 63.6404 146.314 64.1304C146.804 64.6204 147.193 65.2021 147.458 65.8422C147.723 66.4824 147.86 67.1686 147.86 67.8615Z" fill="url(#paint20_radial_2005_38)"/>
<path d="M145.127 67.3051H140.038C139.891 67.3051 139.749 67.3637 139.645 67.4681C139.541 67.5724 139.482 67.714 139.482 67.8615C139.482 68.0091 139.541 68.1507 139.645 68.255C139.749 68.3594 139.891 68.418 140.038 68.418H145.127C145.2 68.418 145.272 68.4036 145.34 68.3757C145.407 68.3477 145.469 68.3067 145.52 68.255C145.572 68.2034 145.613 68.142 145.641 68.0745C145.669 68.007 145.683 67.9346 145.683 67.8615C145.683 67.7885 145.669 67.7161 145.641 67.6486C145.613 67.5811 145.572 67.5197 145.52 67.4681C145.469 67.4164 145.407 67.3754 145.34 67.3474C145.272 67.3194 145.2 67.3051 145.127 67.3051Z" fill="white"/>
<defs>
<linearGradient id="paint0_linear_2005_38" x1="257.107" y1="27.0106" x2="273.331" y2="10.3362" gradientUnits="userSpaceOnUse">
<stop stop-color="#5A9AE0"/>
<stop offset="1" stop-color="#202D8F"/>
</linearGradient>
<linearGradient id="paint1_linear_2005_38" x1="90.7839" y1="112.349" x2="135.278" y2="112.349" gradientUnits="userSpaceOnUse">
<stop stop-color="#87D2E2"/>
<stop offset="0.13418" stop-color="#8AD3E3"/>
<stop offset="0.21773" stop-color="#92D6E4"/>
<stop offset="0.28746" stop-color="#A1DBE7"/>
<stop offset="0.34957" stop-color="#B5E2EB"/>
<stop offset="0.40636" stop-color="#D0EBF1"/>
<stop offset="0.45904" stop-color="#F0F6F7"/>
<stop offset="0.46315" stop-color="#F3F7F8"/>
<stop offset="0.55755" stop-color="#DBEFF3"/>
<stop offset="0.75691" stop-color="#AEDFEA"/>
<stop offset="0.91099" stop-color="#91D6E4"/>
<stop offset="1" stop-color="#87D2E2"/>
</linearGradient>
<linearGradient id="paint2_linear_2005_38" x1="91.82" y1="122.227" x2="141.233" y2="127.897" gradientUnits="userSpaceOnUse">
<stop stop-color="#87D2E2"/>
<stop offset="0.03774" stop-color="#9CD9E6"/>
<stop offset="0.10448" stop-color="#BCE4ED"/>
<stop offset="0.17417" stop-color="#D4ECF2"/>
<stop offset="0.2472" stop-color="#E5F2F5"/>
<stop offset="0.32574" stop-color="#F0F6F7"/>
<stop offset="0.41959" stop-color="#F3F7F8"/>
<stop offset="0.52165" stop-color="#DBEFF3"/>
<stop offset="0.73718" stop-color="#AEDFEA"/>
<stop offset="0.90377" stop-color="#91D6E4"/>
<stop offset="1" stop-color="#87D2E2"/>
</linearGradient>
<linearGradient id="paint3_linear_2005_38" x1="107.717" y1="78.1824" x2="119.113" y2="126.211" gradientUnits="userSpaceOnUse">
<stop stop-color="#202D8F"/>
<stop offset="1" stop-color="#528DCD"/>
</linearGradient>
<linearGradient id="paint4_linear_2005_38" x1="110.403" y1="83.9958" x2="112.845" y2="114.929" gradientUnits="userSpaceOnUse">
<stop stop-color="#202D8F"/>
<stop offset="1" stop-color="#528DCD"/>
</linearGradient>
<linearGradient id="paint5_linear_2005_38" x1="108.121" y1="103.974" x2="118.703" y2="150.374" gradientUnits="userSpaceOnUse">
<stop stop-color="#202D8F"/>
<stop offset="1" stop-color="#528DCD"/>
</linearGradient>
<radialGradient id="paint6_radial_2005_38" cx="0" cy="0" r="1" gradientUnits="userSpaceOnUse" gradientTransform="translate(111.266 160.226) scale(27.8666 7.22581)">
<stop stop-color="#50B0C4"/>
<stop offset="0.04532" stop-color="#5EB6C9"/>
<stop offset="0.21623" stop-color="#8FCCD9"/>
<stop offset="0.38597" stop-color="#B7DFE7"/>
<stop offset="0.55156" stop-color="#D7EDF1"/>
<stop offset="0.71166" stop-color="#EDF7F9"/>
<stop offset="0.86396" stop-color="#FAFDFD"/>
<stop offset="1" stop-color="white"/>
</radialGradient>
<radialGradient id="paint7_radial_2005_38" cx="0" cy="0" r="1" gradientUnits="userSpaceOnUse" gradientTransform="translate(115.532 114.012) rotate(-90) scale(27.8665 7.22578)">
<stop stop-color="#50B0C4"/>
<stop offset="0.04532" stop-color="#5EB6C9"/>
<stop offset="0.21623" stop-color="#8FCCD9"/>
<stop offset="0.38597" stop-color="#B7DFE7"/>
<stop offset="0.55156" stop-color="#D7EDF1"/>
<stop offset="0.71166" stop-color="#EDF7F9"/>
<stop offset="0.86396" stop-color="#FAFDFD"/>
<stop offset="1" stop-color="white"/>
</radialGradient>
<radialGradient id="paint8_radial_2005_38" cx="0" cy="0" r="1" gradientUnits="userSpaceOnUse" gradientTransform="translate(114.21 133.183) rotate(-90) scale(27.8666 7.2258)">
<stop stop-color="#50B0C4"/>
<stop offset="0.04532" stop-color="#5EB6C9"/>
<stop offset="0.21623" stop-color="#8FCCD9"/>
<stop offset="0.38597" stop-color="#B7DFE7"/>
<stop offset="0.55156" stop-color="#D7EDF1"/>
<stop offset="0.71166" stop-color="#EDF7F9"/>
<stop offset="0.86396" stop-color="#FAFDFD"/>
<stop offset="1" stop-color="white"/>
</radialGradient>
<radialGradient id="paint9_radial_2005_38" cx="0" cy="0" r="1" gradientUnits="userSpaceOnUse" gradientTransform="translate(109.3 40.1398) scale(29.8267 29.8267)">
<stop stop-color="#5A9AE0"/>
<stop offset="1" stop-color="#202D8F"/>
</radialGradient>
<radialGradient id="paint10_radial_2005_38" cx="0" cy="0" r="1" gradientUnits="userSpaceOnUse" gradientTransform="translate(92.434 64.5887) scale(8.05905)">
<stop stop-color="#528DCD"/>
<stop offset="1" stop-color="#202D8F"/>
</radialGradient>
<linearGradient id="paint11_linear_2005_38" x1="139.087" y1="112.349" x2="187.832" y2="112.349" gradientUnits="userSpaceOnUse">
<stop stop-color="#87D2E2"/>
<stop offset="0.13418" stop-color="#8AD3E3"/>
<stop offset="0.21773" stop-color="#92D6E4"/>
<stop offset="0.28746" stop-color="#A1DBE7"/>
<stop offset="0.34957" stop-color="#B5E2EB"/>
<stop offset="0.40636" stop-color="#D0EBF1"/>
<stop offset="0.45904" stop-color="#F0F6F7"/>
<stop offset="0.46315" stop-color="#F3F7F8"/>
<stop offset="0.55755" stop-color="#DBEFF3"/>
<stop offset="0.75691" stop-color="#AEDFEA"/>
<stop offset="0.91099" stop-color="#91D6E4"/>
<stop offset="1" stop-color="#87D2E2"/>
</linearGradient>
<linearGradient id="paint12_linear_2005_38" x1="140.947" y1="123.383" x2="188.74" y2="125.813" gradientUnits="userSpaceOnUse">
<stop stop-color="#87D2E2"/>
<stop offset="0.03774" stop-color="#9CD9E6"/>
<stop offset="0.10448" stop-color="#BCE4ED"/>
<stop offset="0.17417" stop-color="#D4ECF2"/>
<stop offset="0.2472" stop-color="#E5F2F5"/>
<stop offset="0.32574" stop-color="#F0F6F7"/>
<stop offset="0.41959" stop-color="#F3F7F8"/>
<stop offset="0.52165" stop-color="#DBEFF3"/>
<stop offset="0.73718" stop-color="#AEDFEA"/>
<stop offset="0.90377" stop-color="#91D6E4"/>
<stop offset="1" stop-color="#87D2E2"/>
</linearGradient>
<linearGradient id="paint13_linear_2005_38" x1="155.963" y1="78.1824" x2="167.36" y2="126.211" gradientUnits="userSpaceOnUse">
<stop stop-color="#202D8F"/>
<stop offset="1" stop-color="#528DCD"/>
</linearGradient>
<linearGradient id="paint14_linear_2005_38" x1="158.649" y1="83.9958" x2="161.091" y2="114.929" gradientUnits="userSpaceOnUse">
<stop stop-color="#202D8F"/>
<stop offset="1" stop-color="#528DCD"/>
</linearGradient>
<linearGradient id="paint15_linear_2005_38" x1="156.367" y1="103.974" x2="166.95" y2="150.374" gradientUnits="userSpaceOnUse">
<stop stop-color="#202D8F"/>
<stop offset="1" stop-color="#528DCD"/>
</linearGradient>
<radialGradient id="paint16_radial_2005_38" cx="0" cy="0" r="1" gradientUnits="userSpaceOnUse" gradientTransform="translate(159.512 160.226) scale(27.8666 7.22581)">
<stop stop-color="#50B0C4"/>
<stop offset="0.04532" stop-color="#5EB6C9"/>
<stop offset="0.21623" stop-color="#8FCCD9"/>
<stop offset="0.38597" stop-color="#B7DFE7"/>
<stop offset="0.55156" stop-color="#D7EDF1"/>
<stop offset="0.71166" stop-color="#EDF7F9"/>
<stop offset="0.86396" stop-color="#FAFDFD"/>
<stop offset="1" stop-color="white"/>
</radialGradient>
<radialGradient id="paint17_radial_2005_38" cx="0" cy="0" r="1" gradientUnits="userSpaceOnUse" gradientTransform="translate(163.778 114.012) rotate(-90) scale(27.8665 7.22578)">
<stop stop-color="#50B0C4"/>
<stop offset="0.04532" stop-color="#5EB6C9"/>
<stop offset="0.21623" stop-color="#8FCCD9"/>
<stop offset="0.38597" stop-color="#B7DFE7"/>
<stop offset="0.55156" stop-color="#D7EDF1"/>
<stop offset="0.71166" stop-color="#EDF7F9"/>
<stop offset="0.86396" stop-color="#FAFDFD"/>
<stop offset="1" stop-color="white"/>
</radialGradient>
<radialGradient id="paint18_radial_2005_38" cx="0" cy="0" r="1" gradientUnits="userSpaceOnUse" gradientTransform="translate(162.456 133.183) rotate(-90) scale(27.8666 7.2258)">
<stop stop-color="#50B0C4"/>
<stop offset="0.04532" stop-color="#5EB6C9"/>
<stop offset="0.21623" stop-color="#8FCCD9"/>
<stop offset="0.38597" stop-color="#B7DFE7"/>
<stop offset="0.55156" stop-color="#D7EDF1"/>
<stop offset="0.71166" stop-color="#EDF7F9"/>
<stop offset="0.86396" stop-color="#FAFDFD"/>
<stop offset="1" stop-color="white"/>
</radialGradient>
<radialGradient id="paint19_radial_2005_38" cx="0" cy="0" r="1" gradientUnits="userSpaceOnUse" gradientTransform="translate(155.421 36.7653) scale(29.4827 29.4827)">
<stop stop-color="#5A9AE0"/>
<stop offset="1" stop-color="#202D8F"/>
</radialGradient>
<radialGradient id="paint20_radial_2005_38" cx="0" cy="0" r="1" gradientUnits="userSpaceOnUse" gradientTransform="translate(141.187 64.5887) scale(7.02041)">
<stop stop-color="#528DCD"/>
<stop offset="1" stop-color="#202D8F"/>
</radialGradient>
</defs>


<style>

    @keyframes move2 {
        0% {
            transform: translateY(0);
        }

        50% {
            transform: translateY(7px);
        }
        
        100% {
            transform: translateY(0);
        }
        
    }

    .el1 {
        animation: move2 4s infinite;
        animation-timing-function: ease-in-out;
    }

    .el2 {
        animation: move2 4s infinite;
        animation-timing-function: ease-in-out;
        animation-delay: 0.5s;
    }
    
</style>
</svg>
